<svg xmlns="http://www.w3.org/2000/svg" xmlns:xlink="http://www.w3.org/1999/xlink" contentScriptType="application/ecmascript" contentStyleType="text/css" height="818px" preserveAspectRatio="none" style="width:1144px;height:818px;" version="1.1" viewBox="0 0 1144 818" width="1144px" zoomAndPan="magnify"><defs><filter height="300%" id="f10th1vsqkfwmd" width="300%" x="-1" y="-1"><feGaussianBlur result="blurOut" stdDeviation="2.0"/><feColorMatrix in="blurOut" result="blurOut2" type="matrix" values="0 0 0 0 0 0 0 0 0 0 0 0 0 0 0 0 0 0 .4 0"/><feOffset dx="4.0" dy="4.0" in="blurOut2" result="blurOut3"/><feBlend in="SourceGraphic" in2="blurOut3" mode="normal"/></filter></defs><g><!--cluster model.cards.effects--><polygon fill="#FFFFFF" filter="url(#f10th1vsqkfwmd)" points="22,157,167,157,174,180.6094,1122,180.6094,1122,769,22,769,22,157" style="stroke: #000000; stroke-width: 1.5;"/><line style="stroke: #000000; stroke-width: 1.5;" x1="22" x2="174" y1="180.6094" y2="180.6094"/><text fill="#000000" font-family="sans-serif" font-size="14" font-weight="bold" lengthAdjust="spacingAndGlyphs" textLength="139" x="26" y="173.5332">model.cards.effects</text><!--cluster java.io--><polygon fill="#FFFFFF" filter="url(#f10th1vsqkfwmd)" points="598,24,650,24,657,47.6094,730,47.6094,730,124,598,124,598,24" style="stroke: #000000; stroke-width: 1.5;"/><line style="stroke: #000000; stroke-width: 1.5;" x1="598" x2="657" y1="47.6094" y2="47.6094"/><text fill="#000000" font-family="sans-serif" font-size="14" font-weight="bold" lengthAdjust="spacingAndGlyphs" textLength="46" x="602" y="40.5332">java.io</text><!--class model.cards.effects.Effect--><a href="Effect.html" target="_top" xlink:actuate="onRequest" xlink:show="new" xlink:title="Effect.html" xlink:type="simple"><rect fill="#FEFECE" filter="url(#f10th1vsqkfwmd)" height="186.3594" id="model.cards.effects.Effect" style="stroke: #A80036; stroke-width: 1.5;" width="218" x="555" y="221"/><ellipse cx="644.75" cy="237" fill="#A9DCDF" rx="11" ry="11" style="stroke: #A80036; stroke-width: 1.0;"/><path d="M646.9375,238.7656 L642.7969,238.7656 L642.375,239.7969 L642.7969,239.7969 Q643.4063,239.7969 643.6719,240.0313 Q643.9375,240.2656 643.9375,240.6563 Q643.9375,241.0313 643.6719,241.2656 Q643.4063,241.5 642.7969,241.5 L640.5,241.5 Q639.8906,241.5 639.6406,241.2656 Q639.375,241.0313 639.375,240.6406 Q639.375,240.2656 639.6563,240.0313 Q639.9219,239.7813 640.5469,239.7969 L643.2188,233.1406 L642.1094,233.1406 Q641.5,233.1406 641.2344,232.9063 Q640.9688,232.6719 640.9688,232.2813 Q640.9688,231.9063 641.2344,231.6719 Q641.5,231.4375 642.1094,231.4375 L645.7813,231.4375 L649.1719,239.7969 Q649.7656,239.7969 649.9531,239.9375 Q650.3438,240.2031 650.3438,240.6563 Q650.3438,241.0313 650.0781,241.2656 Q649.8281,241.5 649.2188,241.5 L646.9219,241.5 Q646.3125,241.5 646.0469,241.2656 Q645.7813,241.0313 645.7813,240.6406 Q645.7813,240.2656 646.0469,240.0313 Q646.3125,239.7969 646.9219,239.7969 L647.3438,239.7969 L646.9375,238.7656 Z M646.2188,237.0625 L644.8594,233.6875 L643.4844,237.0625 L646.2188,237.0625 Z "/><text fill="#000000" font-family="sans-serif" font-size="12" font-style="italic" lengthAdjust="spacingAndGlyphs" textLength="30" x="665.25" y="241.9102">Effect</text><line style="stroke: #A80036; stroke-width: 1.5;" x1="556" x2="772" y1="253" y2="253"/><polygon fill="none" points="566,260.418,570,264.418,566,268.418,562,264.418" style="stroke: #B38D22; stroke-width: 1.0;"/><text fill="#000000" font-family="sans-serif" font-size="11" lengthAdjust="spacingAndGlyphs" textLength="97" x="575" y="268.4189">cost: AmmoQuantity</text><polygon fill="none" points="566,274.2539,570,278.2539,566,282.2539,562,278.2539" style="stroke: #B38D22; stroke-width: 1.0;"/><text fill="#000000" font-family="sans-serif" font-size="11" lengthAdjust="spacingAndGlyphs" textLength="101" x="575" y="282.2549">targets: TargetType[]</text><polygon fill="none" points="566,288.0898,570,292.0898,566,296.0898,562,292.0898" style="stroke: #B38D22; stroke-width: 1.0;"/><text fill="#000000" font-family="sans-serif" font-size="11" lengthAdjust="spacingAndGlyphs" textLength="87" x="575" y="296.0908">description: String</text><line style="stroke: #A80036; stroke-width: 1.5;" x1="556" x2="772" y1="302.5078" y2="302.5078"/><ellipse cx="566" cy="314.9258" fill="#84BE84" rx="3" ry="3" style="stroke: #038048; stroke-width: 1.0;"/><text fill="#000000" font-family="sans-serif" font-size="11" lengthAdjust="spacingAndGlyphs" textLength="172" x="575" y="317.9268">getProperties(): Map&lt;String, String&gt;</text><ellipse cx="566" cy="328.7617" fill="#84BE84" rx="3" ry="3" style="stroke: #038048; stroke-width: 1.0;"/><text fill="#000000" font-family="sans-serif" font-size="11" lengthAdjust="spacingAndGlyphs" textLength="127" x="575" y="331.7627">getTargets(): TargetType[]</text><ellipse cx="566" cy="342.5977" fill="#84BE84" rx="3" ry="3" style="stroke: #038048; stroke-width: 1.0;"/><text fill="#000000" font-family="sans-serif" font-size="11" lengthAdjust="spacingAndGlyphs" textLength="111" x="575" y="345.5986">getDescription(): String</text><ellipse cx="566" cy="356.4336" fill="#84BE84" rx="3" ry="3" style="stroke: #038048; stroke-width: 1.0;"/><text fill="#000000" font-family="sans-serif" font-size="11" lengthAdjust="spacingAndGlyphs" textLength="121" x="575" y="359.4346">getCost(): AmmoQuantity</text><ellipse cx="566" cy="370.2695" fill="#84BE84" rx="3" ry="3" style="stroke: #038048; stroke-width: 1.0;"/><text fill="#000000" font-family="sans-serif" font-size="11" lengthAdjust="spacingAndGlyphs" textLength="192" x="575" y="373.2705">setProperties(Map&lt;String, String&gt;): void</text><ellipse cx="566" cy="384.1055" fill="#84BE84" rx="3" ry="3" style="stroke: #038048; stroke-width: 1.0;"/><text fill="#000000" font-family="sans-serif" font-size="11" font-style="italic" lengthAdjust="spacingAndGlyphs" textLength="142" x="575" y="387.1064">execute(EffectRequest): void</text><ellipse cx="566" cy="397.9414" fill="#84BE84" rx="3" ry="3" style="stroke: #038048; stroke-width: 1.0;"/><text fill="#000000" font-family="sans-serif" font-size="11" font-style="italic" lengthAdjust="spacingAndGlyphs" textLength="161" x="575" y="400.9424">validate(EffectRequest): boolean</text></a><!--class model.cards.effects.EffectValidator--><a href="EffectValidator.html" target="_top" xlink:actuate="onRequest" xlink:show="new" xlink:title="EffectValidator.html" xlink:type="simple"><rect fill="#FEFECE" filter="url(#f10th1vsqkfwmd)" height="241.7031" id="model.cards.effects.EffectValidator" style="stroke: #A80036; stroke-width: 1.5;" width="482" x="38" y="193"/><ellipse cx="235.75" cy="209" fill="#ADD1B2" rx="11" ry="11" style="stroke: #A80036; stroke-width: 1.0;"/><path d="M238.5156,204.875 Q238.6719,204.6563 238.8594,204.5469 Q239.0469,204.4375 239.2656,204.4375 Q239.6406,204.4375 239.875,204.7031 Q240.1094,204.9531 240.1094,205.5625 L240.1094,207.0156 Q240.1094,207.625 239.875,207.8906 Q239.6406,208.1563 239.2656,208.1563 Q238.9219,208.1563 238.7188,207.9531 Q238.5156,207.7656 238.4063,207.25 Q238.3594,206.8906 238.1719,206.7031 Q237.8438,206.3281 237.2344,206.1094 Q236.625,205.8906 236,205.8906 Q235.2344,205.8906 234.5938,206.2188 Q233.9688,206.5469 233.4688,207.2969 Q232.9844,208.0469 232.9844,209.0781 L232.9844,210.1719 Q232.9844,211.4063 233.875,212.2344 Q234.7656,213.0469 236.3594,213.0469 Q237.2969,213.0469 237.9531,212.7969 Q238.3438,212.6406 238.7656,212.2031 Q239.0313,211.9375 239.1719,211.8594 Q239.3281,211.7813 239.5313,211.7813 Q239.8594,211.7813 240.1094,212.0469 Q240.375,212.2969 240.375,212.6406 Q240.375,212.9844 240.0313,213.3906 Q239.5313,213.9688 238.7344,214.2969 Q237.6563,214.75 236.3594,214.75 Q234.8438,214.75 233.6406,214.125 Q232.6563,213.625 231.9688,212.5625 Q231.2813,211.4844 231.2813,210.2031 L231.2813,209.0469 Q231.2813,207.7188 231.8906,206.5781 Q232.5156,205.4219 233.6094,204.8125 Q234.7031,204.1875 235.9375,204.1875 Q236.6719,204.1875 237.3125,204.3594 Q237.9688,204.5156 238.5156,204.875 Z "/><text fill="#000000" font-family="sans-serif" font-size="12" lengthAdjust="spacingAndGlyphs" textLength="78" x="256.25" y="213.9102">EffectValidator</text><line style="stroke: #A80036; stroke-width: 1.5;" x1="39" x2="519" y1="225" y2="225"/><line style="stroke: #A80036; stroke-width: 1.5;" x1="39" x2="519" y1="233" y2="233"/><polygon fill="#4177AF" points="49,241.418,45,247.418,53,247.418" style="stroke: #1963A0; stroke-width: 1.0;"/><text fill="#000000" font-family="sans-serif" font-size="11" lengthAdjust="spacingAndGlyphs" text-decoration="underline" textLength="317" x="58" y="248.4189">getSubMap(Map&lt;String, String&gt;, TargetType): Map&lt;String, String&gt;</text><polygon fill="#4177AF" points="49,255.2539,45,261.2539,53,261.2539" style="stroke: #1963A0; stroke-width: 1.0;"/><text fill="#000000" font-family="sans-serif" font-size="11" lengthAdjust="spacingAndGlyphs" text-decoration="underline" textLength="279" x="58" y="262.2549">isMoveValid(EffectRequest, Map&lt;String, String&gt;): boolean</text><polygon fill="#4177AF" points="49,269.0898,45,275.0898,53,275.0898" style="stroke: #1963A0; stroke-width: 1.0;"/><text fill="#000000" font-family="sans-serif" font-size="11" lengthAdjust="spacingAndGlyphs" text-decoration="underline" textLength="217" x="58" y="276.0908">isMoveInMiddleValid(EffectRequest): boolean</text><polygon fill="#4177AF" points="49,282.9258,45,288.9258,53,288.9258" style="stroke: #1963A0; stroke-width: 1.0;"/><text fill="#000000" font-family="sans-serif" font-size="11" lengthAdjust="spacingAndGlyphs" text-decoration="underline" textLength="456" x="58" y="289.9268">isDistanceValid(Map&lt;String, String&gt;, PlayerPosition, List&lt;PlayerPosition&gt;, TargetType): boolean</text><polygon fill="#4177AF" points="49,296.7617,45,302.7617,53,302.7617" style="stroke: #1963A0; stroke-width: 1.0;"/><text fill="#000000" font-family="sans-serif" font-size="11" lengthAdjust="spacingAndGlyphs" text-decoration="underline" textLength="404" x="58" y="303.7627">isPositioningValid(Map&lt;String, String&gt;, PlayerPosition, List&lt;PlayerPosition&gt;): boolean</text><polygon fill="#4177AF" points="49,310.5977,45,316.5977,53,316.5977" style="stroke: #1963A0; stroke-width: 1.0;"/><text fill="#000000" font-family="sans-serif" font-size="11" lengthAdjust="spacingAndGlyphs" text-decoration="underline" textLength="401" x="58" y="317.5986">isMovingToLastTarget(ShootRequest, PlayerPosition, List&lt;PlayerPosition&gt;): boolean</text><polygon fill="#4177AF" points="49,324.4336,45,330.4336,53,330.4336" style="stroke: #1963A0; stroke-width: 1.0;"/><text fill="#000000" font-family="sans-serif" font-size="11" lengthAdjust="spacingAndGlyphs" text-decoration="underline" textLength="392" x="58" y="331.4346">isVisibilityValid(Map&lt;String, String&gt;, PlayerPosition, List&lt;PlayerPosition&gt;): boolean</text><polygon fill="#4177AF" points="49,338.2695,45,344.2695,53,344.2695" style="stroke: #1963A0; stroke-width: 1.0;"/><text fill="#000000" font-family="sans-serif" font-size="11" lengthAdjust="spacingAndGlyphs" text-decoration="underline" textLength="243" x="58" y="345.2705">getPlayersByUsername(List&lt;String&gt;): List&lt;Player&gt;</text><polygon fill="#4177AF" points="49,352.1055,45,358.1055,53,358.1055" style="stroke: #1963A0; stroke-width: 1.0;"/><text fill="#000000" font-family="sans-serif" font-size="11" lengthAdjust="spacingAndGlyphs" text-decoration="underline" textLength="329" x="58" y="359.1064">getTargetPositions(EffectRequest, TargetType): List&lt;PlayerPosition&gt;</text><polygon fill="#4177AF" points="49,365.9414,45,371.9414,53,371.9414" style="stroke: #1963A0; stroke-width: 1.0;"/><text fill="#000000" font-family="sans-serif" font-size="11" lengthAdjust="spacingAndGlyphs" text-decoration="underline" textLength="345" x="58" y="372.9424">isTargetValid(EffectRequest, Map&lt;String, String&gt;, TargetType): boolean</text><ellipse cx="49" cy="383.7773" fill="#84BE84" rx="3" ry="3" style="stroke: #038048; stroke-width: 1.0;"/><text fill="#000000" font-family="sans-serif" font-size="11" lengthAdjust="spacingAndGlyphs" text-decoration="underline" textLength="311" x="58" y="386.7783">isMoveBeforeValid(ShootRequest, Map&lt;String, String&gt;): boolean</text><polygon fill="#4177AF" points="49,393.6133,45,399.6133,53,399.6133" style="stroke: #1963A0; stroke-width: 1.0;"/><text fill="#000000" font-family="sans-serif" font-size="11" lengthAdjust="spacingAndGlyphs" text-decoration="underline" textLength="238" x="58" y="400.6143">isPowerupIndexValid(PowerupRequest): boolean</text><polygon fill="#4177AF" points="49,407.4492,45,413.4492,53,413.4492" style="stroke: #1963A0; stroke-width: 1.0;"/><text fill="#000000" font-family="sans-serif" font-size="11" lengthAdjust="spacingAndGlyphs" text-decoration="underline" textLength="225" x="58" y="414.4502">teleporterValidator(PowerupRequest): boolean</text><polygon fill="#4177AF" points="49,421.2852,45,427.2852,53,427.2852" style="stroke: #1963A0; stroke-width: 1.0;"/><text fill="#000000" font-family="sans-serif" font-size="11" lengthAdjust="spacingAndGlyphs" text-decoration="underline" textLength="256" x="58" y="428.2861">checkAdrenalineMove(ShootRequest): PlayerPosition</text></a><!--class model.cards.effects.ExtraDamageDecorator--><a href="ExtraDamageDecorator.html" target="_top" xlink:actuate="onRequest" xlink:show="new" xlink:title="ExtraDamageDecorator.html" xlink:type="simple"><rect fill="#FEFECE" filter="url(#f10th1vsqkfwmd)" height="75.6719" id="model.cards.effects.ExtraDamageDecorator" style="stroke: #A80036; stroke-width: 1.5;" width="259" x="38.5" y="677"/><ellipse cx="99.25" cy="693" fill="#ADD1B2" rx="11" ry="11" style="stroke: #A80036; stroke-width: 1.0;"/><path d="M102.0156,688.875 Q102.1719,688.6563 102.3594,688.5469 Q102.5469,688.4375 102.7656,688.4375 Q103.1406,688.4375 103.375,688.7031 Q103.6094,688.9531 103.6094,689.5625 L103.6094,691.0156 Q103.6094,691.625 103.375,691.8906 Q103.1406,692.1563 102.7656,692.1563 Q102.4219,692.1563 102.2188,691.9531 Q102.0156,691.7656 101.9063,691.25 Q101.8594,690.8906 101.6719,690.7031 Q101.3438,690.3281 100.7344,690.1094 Q100.125,689.8906 99.5,689.8906 Q98.7344,689.8906 98.0938,690.2188 Q97.4688,690.5469 96.9688,691.2969 Q96.4844,692.0469 96.4844,693.0781 L96.4844,694.1719 Q96.4844,695.4063 97.375,696.2344 Q98.2656,697.0469 99.8594,697.0469 Q100.7969,697.0469 101.4531,696.7969 Q101.8438,696.6406 102.2656,696.2031 Q102.5313,695.9375 102.6719,695.8594 Q102.8281,695.7813 103.0313,695.7813 Q103.3594,695.7813 103.6094,696.0469 Q103.875,696.2969 103.875,696.6406 Q103.875,696.9844 103.5313,697.3906 Q103.0313,697.9688 102.2344,698.2969 Q101.1563,698.75 99.8594,698.75 Q98.3438,698.75 97.1406,698.125 Q96.1563,697.625 95.4688,696.5625 Q94.7813,695.4844 94.7813,694.2031 L94.7813,693.0469 Q94.7813,691.7188 95.3906,690.5781 Q96.0156,689.4219 97.1094,688.8125 Q98.2031,688.1875 99.4375,688.1875 Q100.1719,688.1875 100.8125,688.3594 Q101.4688,688.5156 102.0156,688.875 Z "/><text fill="#000000" font-family="sans-serif" font-size="12" lengthAdjust="spacingAndGlyphs" textLength="129" x="119.75" y="697.9102">ExtraDamageDecorator</text><line style="stroke: #A80036; stroke-width: 1.5;" x1="39.5" x2="296.5" y1="709" y2="709"/><line style="stroke: #A80036; stroke-width: 1.5;" x1="39.5" x2="296.5" y1="717" y2="717"/><ellipse cx="49.5" cy="729.418" fill="#84BE84" rx="3" ry="3" style="stroke: #038048; stroke-width: 1.0;"/><text fill="#000000" font-family="sans-serif" font-size="11" lengthAdjust="spacingAndGlyphs" textLength="233" x="58.5" y="732.4189">ExtraDamageDecorator(Effect, int[], TargetType)</text><ellipse cx="49.5" cy="743.2539" fill="#84BE84" rx="3" ry="3" style="stroke: #038048; stroke-width: 1.0;"/><text fill="#000000" font-family="sans-serif" font-size="11" lengthAdjust="spacingAndGlyphs" textLength="142" x="58.5" y="746.2549">execute(EffectRequest): void</text></a><!--class model.cards.effects.ExtraDamageNoMarkDecorator--><a href="ExtraDamageNoMarkDecorator.html" target="_top" xlink:actuate="onRequest" xlink:show="new" xlink:title="ExtraDamageNoMarkDecorator.html" xlink:type="simple"><rect fill="#FEFECE" filter="url(#f10th1vsqkfwmd)" height="75.6719" id="model.cards.effects.ExtraDamageNoMarkDecorator" style="stroke: #A80036; stroke-width: 1.5;" width="234" x="333" y="677"/><ellipse cx="361.95" cy="693" fill="#ADD1B2" rx="11" ry="11" style="stroke: #A80036; stroke-width: 1.0;"/><path d="M364.7156,688.875 Q364.8719,688.6563 365.0594,688.5469 Q365.2469,688.4375 365.4656,688.4375 Q365.8406,688.4375 366.075,688.7031 Q366.3094,688.9531 366.3094,689.5625 L366.3094,691.0156 Q366.3094,691.625 366.075,691.8906 Q365.8406,692.1563 365.4656,692.1563 Q365.1219,692.1563 364.9188,691.9531 Q364.7156,691.7656 364.6063,691.25 Q364.5594,690.8906 364.3719,690.7031 Q364.0438,690.3281 363.4344,690.1094 Q362.825,689.8906 362.2,689.8906 Q361.4344,689.8906 360.7938,690.2188 Q360.1688,690.5469 359.6688,691.2969 Q359.1844,692.0469 359.1844,693.0781 L359.1844,694.1719 Q359.1844,695.4063 360.075,696.2344 Q360.9656,697.0469 362.5594,697.0469 Q363.4969,697.0469 364.1531,696.7969 Q364.5438,696.6406 364.9656,696.2031 Q365.2313,695.9375 365.3719,695.8594 Q365.5281,695.7813 365.7313,695.7813 Q366.0594,695.7813 366.3094,696.0469 Q366.575,696.2969 366.575,696.6406 Q366.575,696.9844 366.2313,697.3906 Q365.7313,697.9688 364.9344,698.2969 Q363.8563,698.75 362.5594,698.75 Q361.0438,698.75 359.8406,698.125 Q358.8563,697.625 358.1688,696.5625 Q357.4813,695.4844 357.4813,694.2031 L357.4813,693.0469 Q357.4813,691.7188 358.0906,690.5781 Q358.7156,689.4219 359.8094,688.8125 Q360.9031,688.1875 362.1375,688.1875 Q362.8719,688.1875 363.5125,688.3594 Q364.1688,688.5156 364.7156,688.875 Z "/><text fill="#000000" font-family="sans-serif" font-size="12" lengthAdjust="spacingAndGlyphs" textLength="171" x="379.05" y="697.9102">ExtraDamageNoMarkDecorator</text><line style="stroke: #A80036; stroke-width: 1.5;" x1="334" x2="566" y1="709" y2="709"/><line style="stroke: #A80036; stroke-width: 1.5;" x1="334" x2="566" y1="717" y2="717"/><ellipse cx="344" cy="729.418" fill="#84BE84" rx="3" ry="3" style="stroke: #038048; stroke-width: 1.0;"/><text fill="#000000" font-family="sans-serif" font-size="11" lengthAdjust="spacingAndGlyphs" textLength="208" x="353" y="732.4189">ExtraDamageNoMarkDecorator(Effect, int[])</text><ellipse cx="344" cy="743.2539" fill="#84BE84" rx="3" ry="3" style="stroke: #038048; stroke-width: 1.0;"/><text fill="#000000" font-family="sans-serif" font-size="11" lengthAdjust="spacingAndGlyphs" textLength="142" x="353" y="746.2549">execute(EffectRequest): void</text></a><!--class model.cards.effects.ExtraEffectDecorator--><a href="ExtraEffectDecorator.html" target="_top" xlink:actuate="onRequest" xlink:show="new" xlink:title="ExtraEffectDecorator.html" xlink:type="simple"><rect fill="#FEFECE" filter="url(#f10th1vsqkfwmd)" height="75.6719" id="model.cards.effects.ExtraEffectDecorator" style="stroke: #A80036; stroke-width: 1.5;" width="184" x="487" y="526.5"/><ellipse cx="520" cy="542.5" fill="#A9DCDF" rx="11" ry="11" style="stroke: #A80036; stroke-width: 1.0;"/><path d="M522.1875,544.2656 L518.0469,544.2656 L517.625,545.2969 L518.0469,545.2969 Q518.6563,545.2969 518.9219,545.5313 Q519.1875,545.7656 519.1875,546.1563 Q519.1875,546.5313 518.9219,546.7656 Q518.6563,547 518.0469,547 L515.75,547 Q515.1406,547 514.8906,546.7656 Q514.625,546.5313 514.625,546.1406 Q514.625,545.7656 514.9063,545.5313 Q515.1719,545.2813 515.7969,545.2969 L518.4688,538.6406 L517.3594,538.6406 Q516.75,538.6406 516.4844,538.4063 Q516.2188,538.1719 516.2188,537.7813 Q516.2188,537.4063 516.4844,537.1719 Q516.75,536.9375 517.3594,536.9375 L521.0313,536.9375 L524.4219,545.2969 Q525.0156,545.2969 525.2031,545.4375 Q525.5938,545.7031 525.5938,546.1563 Q525.5938,546.5313 525.3281,546.7656 Q525.0781,547 524.4688,547 L522.1719,547 Q521.5625,547 521.2969,546.7656 Q521.0313,546.5313 521.0313,546.1406 Q521.0313,545.7656 521.2969,545.5313 Q521.5625,545.2969 522.1719,545.2969 L522.5938,545.2969 L522.1875,544.2656 Z M521.4688,542.5625 L520.1094,539.1875 L518.7344,542.5625 L521.4688,542.5625 Z "/><text fill="#000000" font-family="sans-serif" font-size="12" font-style="italic" lengthAdjust="spacingAndGlyphs" textLength="112" x="538" y="547.4102">ExtraEffectDecorator</text><line style="stroke: #A80036; stroke-width: 1.5;" x1="488" x2="670" y1="558.5" y2="558.5"/><line style="stroke: #A80036; stroke-width: 1.5;" x1="488" x2="670" y1="566.5" y2="566.5"/><ellipse cx="498" cy="578.918" fill="#84BE84" rx="3" ry="3" style="stroke: #038048; stroke-width: 1.0;"/><text fill="#000000" font-family="sans-serif" font-size="11" font-style="italic" lengthAdjust="spacingAndGlyphs" textLength="142" x="507" y="581.9189">execute(EffectRequest): void</text><ellipse cx="498" cy="592.7539" fill="#84BE84" rx="3" ry="3" style="stroke: #038048; stroke-width: 1.0;"/><text fill="#000000" font-family="sans-serif" font-size="11" lengthAdjust="spacingAndGlyphs" textLength="158" x="507" y="595.7549">validate(EffectRequest): boolean</text></a><!--class model.cards.effects.ExtraMarkDecorator--><a href="ExtraMarkDecorator.html" target="_top" xlink:actuate="onRequest" xlink:show="new" xlink:title="ExtraMarkDecorator.html" xlink:type="simple"><rect fill="#FEFECE" filter="url(#f10th1vsqkfwmd)" height="75.6719" id="model.cards.effects.ExtraMarkDecorator" style="stroke: #A80036; stroke-width: 1.5;" width="243" x="602.5" y="677"/><ellipse cx="666.25" cy="693" fill="#ADD1B2" rx="11" ry="11" style="stroke: #A80036; stroke-width: 1.0;"/><path d="M669.0156,688.875 Q669.1719,688.6563 669.3594,688.5469 Q669.5469,688.4375 669.7656,688.4375 Q670.1406,688.4375 670.375,688.7031 Q670.6094,688.9531 670.6094,689.5625 L670.6094,691.0156 Q670.6094,691.625 670.375,691.8906 Q670.1406,692.1563 669.7656,692.1563 Q669.4219,692.1563 669.2188,691.9531 Q669.0156,691.7656 668.9063,691.25 Q668.8594,690.8906 668.6719,690.7031 Q668.3438,690.3281 667.7344,690.1094 Q667.125,689.8906 666.5,689.8906 Q665.7344,689.8906 665.0938,690.2188 Q664.4688,690.5469 663.9688,691.2969 Q663.4844,692.0469 663.4844,693.0781 L663.4844,694.1719 Q663.4844,695.4063 664.375,696.2344 Q665.2656,697.0469 666.8594,697.0469 Q667.7969,697.0469 668.4531,696.7969 Q668.8438,696.6406 669.2656,696.2031 Q669.5313,695.9375 669.6719,695.8594 Q669.8281,695.7813 670.0313,695.7813 Q670.3594,695.7813 670.6094,696.0469 Q670.875,696.2969 670.875,696.6406 Q670.875,696.9844 670.5313,697.3906 Q670.0313,697.9688 669.2344,698.2969 Q668.1563,698.75 666.8594,698.75 Q665.3438,698.75 664.1406,698.125 Q663.1563,697.625 662.4688,696.5625 Q661.7813,695.4844 661.7813,694.2031 L661.7813,693.0469 Q661.7813,691.7188 662.3906,690.5781 Q663.0156,689.4219 664.1094,688.8125 Q665.2031,688.1875 666.4375,688.1875 Q667.1719,688.1875 667.8125,688.3594 Q668.4688,688.5156 669.0156,688.875 Z "/><text fill="#000000" font-family="sans-serif" font-size="12" lengthAdjust="spacingAndGlyphs" textLength="107" x="686.75" y="697.9102">ExtraMarkDecorator</text><line style="stroke: #A80036; stroke-width: 1.5;" x1="603.5" x2="844.5" y1="709" y2="709"/><line style="stroke: #A80036; stroke-width: 1.5;" x1="603.5" x2="844.5" y1="717" y2="717"/><ellipse cx="613.5" cy="729.418" fill="#84BE84" rx="3" ry="3" style="stroke: #038048; stroke-width: 1.0;"/><text fill="#000000" font-family="sans-serif" font-size="11" lengthAdjust="spacingAndGlyphs" textLength="217" x="622.5" y="732.4189">ExtraMarkDecorator(Effect, int[], TargetType)</text><ellipse cx="613.5" cy="743.2539" fill="#84BE84" rx="3" ry="3" style="stroke: #038048; stroke-width: 1.0;"/><text fill="#000000" font-family="sans-serif" font-size="11" lengthAdjust="spacingAndGlyphs" textLength="142" x="622.5" y="746.2549">execute(EffectRequest): void</text></a><!--class model.cards.effects.ExtraMoveDecorator--><a href="ExtraMoveDecorator.html" target="_top" xlink:actuate="onRequest" xlink:show="new" xlink:title="ExtraMoveDecorator.html" xlink:type="simple"><rect fill="#FEFECE" filter="url(#f10th1vsqkfwmd)" height="75.6719" id="model.cards.effects.ExtraMoveDecorator" style="stroke: #A80036; stroke-width: 1.5;" width="225" x="880.5" y="677"/><ellipse cx="934.25" cy="693" fill="#ADD1B2" rx="11" ry="11" style="stroke: #A80036; stroke-width: 1.0;"/><path d="M937.0156,688.875 Q937.1719,688.6563 937.3594,688.5469 Q937.5469,688.4375 937.7656,688.4375 Q938.1406,688.4375 938.375,688.7031 Q938.6094,688.9531 938.6094,689.5625 L938.6094,691.0156 Q938.6094,691.625 938.375,691.8906 Q938.1406,692.1563 937.7656,692.1563 Q937.4219,692.1563 937.2188,691.9531 Q937.0156,691.7656 936.9063,691.25 Q936.8594,690.8906 936.6719,690.7031 Q936.3438,690.3281 935.7344,690.1094 Q935.125,689.8906 934.5,689.8906 Q933.7344,689.8906 933.0938,690.2188 Q932.4688,690.5469 931.9688,691.2969 Q931.4844,692.0469 931.4844,693.0781 L931.4844,694.1719 Q931.4844,695.4063 932.375,696.2344 Q933.2656,697.0469 934.8594,697.0469 Q935.7969,697.0469 936.4531,696.7969 Q936.8438,696.6406 937.2656,696.2031 Q937.5313,695.9375 937.6719,695.8594 Q937.8281,695.7813 938.0313,695.7813 Q938.3594,695.7813 938.6094,696.0469 Q938.875,696.2969 938.875,696.6406 Q938.875,696.9844 938.5313,697.3906 Q938.0313,697.9688 937.2344,698.2969 Q936.1563,698.75 934.8594,698.75 Q933.3438,698.75 932.1406,698.125 Q931.1563,697.625 930.4688,696.5625 Q929.7813,695.4844 929.7813,694.2031 L929.7813,693.0469 Q929.7813,691.7188 930.3906,690.5781 Q931.0156,689.4219 932.1094,688.8125 Q933.2031,688.1875 934.4375,688.1875 Q935.1719,688.1875 935.8125,688.3594 Q936.4688,688.5156 937.0156,688.875 Z "/><text fill="#000000" font-family="sans-serif" font-size="12" lengthAdjust="spacingAndGlyphs" textLength="109" x="954.75" y="697.9102">ExtraMoveDecorator</text><line style="stroke: #A80036; stroke-width: 1.5;" x1="881.5" x2="1104.5" y1="709" y2="709"/><line style="stroke: #A80036; stroke-width: 1.5;" x1="881.5" x2="1104.5" y1="717" y2="717"/><ellipse cx="891.5" cy="729.418" fill="#84BE84" rx="3" ry="3" style="stroke: #038048; stroke-width: 1.0;"/><text fill="#000000" font-family="sans-serif" font-size="11" lengthAdjust="spacingAndGlyphs" textLength="199" x="900.5" y="732.4189">ExtraMoveDecorator(Effect, MoveTarget)</text><ellipse cx="891.5" cy="743.2539" fill="#84BE84" rx="3" ry="3" style="stroke: #038048; stroke-width: 1.0;"/><text fill="#000000" font-family="sans-serif" font-size="11" lengthAdjust="spacingAndGlyphs" textLength="142" x="900.5" y="746.2549">execute(EffectRequest): void</text></a><!--class model.cards.effects.PowerupBaseEffect--><a href="PowerupBaseEffect.html" target="_top" xlink:actuate="onRequest" xlink:show="new" xlink:title="PowerupBaseEffect.html" xlink:type="simple"><rect fill="#FEFECE" filter="url(#f10th1vsqkfwmd)" height="103.3438" id="model.cards.effects.PowerupBaseEffect" style="stroke: #A80036; stroke-width: 1.5;" width="403" x="48.5" y="513"/><ellipse cx="191.75" cy="529" fill="#ADD1B2" rx="11" ry="11" style="stroke: #A80036; stroke-width: 1.0;"/><path d="M194.5156,524.875 Q194.6719,524.6563 194.8594,524.5469 Q195.0469,524.4375 195.2656,524.4375 Q195.6406,524.4375 195.875,524.7031 Q196.1094,524.9531 196.1094,525.5625 L196.1094,527.0156 Q196.1094,527.625 195.875,527.8906 Q195.6406,528.1563 195.2656,528.1563 Q194.9219,528.1563 194.7188,527.9531 Q194.5156,527.7656 194.4063,527.25 Q194.3594,526.8906 194.1719,526.7031 Q193.8438,526.3281 193.2344,526.1094 Q192.625,525.8906 192,525.8906 Q191.2344,525.8906 190.5938,526.2188 Q189.9688,526.5469 189.4688,527.2969 Q188.9844,528.0469 188.9844,529.0781 L188.9844,530.1719 Q188.9844,531.4063 189.875,532.2344 Q190.7656,533.0469 192.3594,533.0469 Q193.2969,533.0469 193.9531,532.7969 Q194.3438,532.6406 194.7656,532.2031 Q195.0313,531.9375 195.1719,531.8594 Q195.3281,531.7813 195.5313,531.7813 Q195.8594,531.7813 196.1094,532.0469 Q196.375,532.2969 196.375,532.6406 Q196.375,532.9844 196.0313,533.3906 Q195.5313,533.9688 194.7344,534.2969 Q193.6563,534.75 192.3594,534.75 Q190.8438,534.75 189.6406,534.125 Q188.6563,533.625 187.9688,532.5625 Q187.2813,531.4844 187.2813,530.2031 L187.2813,529.0469 Q187.2813,527.7188 187.8906,526.5781 Q188.5156,525.4219 189.6094,524.8125 Q190.7031,524.1875 191.9375,524.1875 Q192.6719,524.1875 193.3125,524.3594 Q193.9688,524.5156 194.5156,524.875 Z "/><text fill="#000000" font-family="sans-serif" font-size="12" lengthAdjust="spacingAndGlyphs" textLength="108" x="212.25" y="533.9102">PowerupBaseEffect</text><line style="stroke: #A80036; stroke-width: 1.5;" x1="49.5" x2="450.5" y1="545" y2="545"/><line style="stroke: #A80036; stroke-width: 1.5;" x1="49.5" x2="450.5" y1="553" y2="553"/><ellipse cx="59.5" cy="565.418" fill="#84BE84" rx="3" ry="3" style="stroke: #038048; stroke-width: 1.0;"/><text fill="#000000" font-family="sans-serif" font-size="11" lengthAdjust="spacingAndGlyphs" textLength="301" x="68.5" y="568.4189">PowerupBaseEffect(Map&lt;String, String&gt;, TargetType[], String)</text><ellipse cx="59.5" cy="579.2539" fill="#84BE84" rx="3" ry="3" style="stroke: #038048; stroke-width: 1.0;"/><text fill="#000000" font-family="sans-serif" font-size="11" lengthAdjust="spacingAndGlyphs" textLength="377" x="68.5" y="582.2549">PowerupBaseEffect(AmmoQuantity, Map&lt;String, String&gt;, TargetType[], String)</text><ellipse cx="59.5" cy="593.0898" fill="#84BE84" rx="3" ry="3" style="stroke: #038048; stroke-width: 1.0;"/><text fill="#000000" font-family="sans-serif" font-size="11" lengthAdjust="spacingAndGlyphs" textLength="142" x="68.5" y="596.0908">execute(EffectRequest): void</text><ellipse cx="59.5" cy="606.9258" fill="#84BE84" rx="3" ry="3" style="stroke: #038048; stroke-width: 1.0;"/><text fill="#000000" font-family="sans-serif" font-size="11" lengthAdjust="spacingAndGlyphs" textLength="158" x="68.5" y="609.9268">validate(EffectRequest): boolean</text></a><!--class model.cards.effects.WeaponBaseEffect--><a href="WeaponBaseEffect.html" target="_top" xlink:actuate="onRequest" xlink:show="new" xlink:title="WeaponBaseEffect.html" xlink:type="simple"><rect fill="#FEFECE" filter="url(#f10th1vsqkfwmd)" height="89.5078" id="model.cards.effects.WeaponBaseEffect" style="stroke: #A80036; stroke-width: 1.5;" width="399" x="706.5" y="519.5"/><ellipse cx="849.25" cy="535.5" fill="#ADD1B2" rx="11" ry="11" style="stroke: #A80036; stroke-width: 1.0;"/><path d="M852.0156,531.375 Q852.1719,531.1563 852.3594,531.0469 Q852.5469,530.9375 852.7656,530.9375 Q853.1406,530.9375 853.375,531.2031 Q853.6094,531.4531 853.6094,532.0625 L853.6094,533.5156 Q853.6094,534.125 853.375,534.3906 Q853.1406,534.6563 852.7656,534.6563 Q852.4219,534.6563 852.2188,534.4531 Q852.0156,534.2656 851.9063,533.75 Q851.8594,533.3906 851.6719,533.2031 Q851.3438,532.8281 850.7344,532.6094 Q850.125,532.3906 849.5,532.3906 Q848.7344,532.3906 848.0938,532.7188 Q847.4688,533.0469 846.9688,533.7969 Q846.4844,534.5469 846.4844,535.5781 L846.4844,536.6719 Q846.4844,537.9063 847.375,538.7344 Q848.2656,539.5469 849.8594,539.5469 Q850.7969,539.5469 851.4531,539.2969 Q851.8438,539.1406 852.2656,538.7031 Q852.5313,538.4375 852.6719,538.3594 Q852.8281,538.2813 853.0313,538.2813 Q853.3594,538.2813 853.6094,538.5469 Q853.875,538.7969 853.875,539.1406 Q853.875,539.4844 853.5313,539.8906 Q853.0313,540.4688 852.2344,540.7969 Q851.1563,541.25 849.8594,541.25 Q848.3438,541.25 847.1406,540.625 Q846.1563,540.125 845.4688,539.0625 Q844.7813,537.9844 844.7813,536.7031 L844.7813,535.5469 Q844.7813,534.2188 845.3906,533.0781 Q846.0156,531.9219 847.1094,531.3125 Q848.2031,530.6875 849.4375,530.6875 Q850.1719,530.6875 850.8125,530.8594 Q851.4688,531.0156 852.0156,531.375 Z "/><text fill="#000000" font-family="sans-serif" font-size="12" lengthAdjust="spacingAndGlyphs" textLength="105" x="869.75" y="540.4102">WeaponBaseEffect</text><line style="stroke: #A80036; stroke-width: 1.5;" x1="707.5" x2="1104.5" y1="551.5" y2="551.5"/><line style="stroke: #A80036; stroke-width: 1.5;" x1="707.5" x2="1104.5" y1="559.5" y2="559.5"/><ellipse cx="717.5" cy="571.918" fill="#84BE84" rx="3" ry="3" style="stroke: #038048; stroke-width: 1.0;"/><text fill="#000000" font-family="sans-serif" font-size="11" lengthAdjust="spacingAndGlyphs" textLength="373" x="726.5" y="574.9189">WeaponBaseEffect(AmmoQuantity, Map&lt;String, String&gt;, TargetType[], String)</text><ellipse cx="717.5" cy="585.7539" fill="#84BE84" rx="3" ry="3" style="stroke: #038048; stroke-width: 1.0;"/><text fill="#000000" font-family="sans-serif" font-size="11" lengthAdjust="spacingAndGlyphs" textLength="142" x="726.5" y="588.7549">execute(EffectRequest): void</text><ellipse cx="717.5" cy="599.5898" fill="#84BE84" rx="3" ry="3" style="stroke: #038048; stroke-width: 1.0;"/><text fill="#000000" font-family="sans-serif" font-size="11" lengthAdjust="spacingAndGlyphs" textLength="158" x="726.5" y="602.5908">validate(EffectRequest): boolean</text></a><!--class java.io.Serializable--><rect fill="#FEFECE" filter="url(#f10th1vsqkfwmd)" height="48" id="java.io.Serializable" style="stroke: #A80036; stroke-width: 1.5;" width="99" x="614.5" y="60"/><ellipse cx="629.5" cy="76" fill="#B4A7E5" rx="11" ry="11" style="stroke: #A80036; stroke-width: 1.0;"/><path d="M630.4531,72.6406 L630.4531,79.2969 L632.1719,79.2969 Q632.7813,79.2969 633.0469,79.5313 Q633.3125,79.7656 633.3125,80.1563 Q633.3125,80.5313 633.0469,80.7656 Q632.7813,81 632.1719,81 L627.0313,81 Q626.4219,81 626.1563,80.7656 Q625.8906,80.5313 625.8906,80.1406 Q625.8906,79.7656 626.1563,79.5313 Q626.4219,79.2969 627.0313,79.2969 L628.75,79.2969 L628.75,72.6406 L627.0313,72.6406 Q626.4219,72.6406 626.1563,72.4063 Q625.8906,72.1719 625.8906,71.7813 Q625.8906,71.4063 626.1563,71.1719 Q626.4219,70.9375 627.0313,70.9375 L632.1719,70.9375 Q632.7813,70.9375 633.0469,71.1719 Q633.3125,71.4063 633.3125,71.7813 Q633.3125,72.1719 633.0469,72.4063 Q632.7813,72.6406 632.1719,72.6406 L630.4531,72.6406 Z "/><text fill="#000000" font-family="sans-serif" font-size="12" font-style="italic" lengthAdjust="spacingAndGlyphs" textLength="67" x="643.5" y="80.9102">Serializable</text><line style="stroke: #A80036; stroke-width: 1.5;" x1="615.5" x2="712.5" y1="92" y2="92"/><line style="stroke: #A80036; stroke-width: 1.5;" x1="615.5" x2="712.5" y1="100" y2="100"/><!--link java.io.Serializable to model.cards.effects.Effect--><path d="M664,128.327 C664,154.484 664,188.839 664,220.816 " fill="none" id="java.io.Serializable-model.cards.effects.Effect" style="stroke: #A80036; stroke-width: 1.0; stroke-dasharray: 7.0,7.0;"/><polygon fill="none" points="657,128.117,664,108.117,671,128.117,657,128.117" style="stroke: #A80036; stroke-width: 1.0;"/><!--link model.cards.effects.ExtraEffectDecorator to model.cards.effects.ExtraDamageDecorator--><path d="M482.433,610.585 C477.911,612.459 473.417,614.274 469,616 C411.927,638.306 347.47,659.772 292.888,676.898 " fill="none" id="model.cards.effects.ExtraEffectDecorator-model.cards.effects.ExtraDamageDecorator" style="stroke: #A80036; stroke-width: 1.0;"/><polygon fill="none" points="479.918,604.048,501.06,602.623,485.421,616.921,479.918,604.048" style="stroke: #A80036; stroke-width: 1.0;"/><!--link model.cards.effects.ExtraEffectDecorator to model.cards.effects.ExtraDamageNoMarkDecorator--><path d="M533.44,617.947 C516.537,637.405 497.73,659.055 482.256,676.868 " fill="none" id="model.cards.effects.ExtraEffectDecorator-model.cards.effects.ExtraDamageNoMarkDecorator" style="stroke: #A80036; stroke-width: 1.0;"/><polygon fill="none" points="528.38,613.098,546.781,602.59,538.949,622.279,528.38,613.098" style="stroke: #A80036; stroke-width: 1.0;"/><!--link model.cards.effects.Effect to model.cards.effects.ExtraEffectDecorator--><path d="M613.829,426.019 C608.79,439.025 604.049,452.215 600,465 C593.719,484.836 588.739,507.515 585.209,526.107 " fill="none" id="model.cards.effects.Effect-model.cards.effects.ExtraEffectDecorator" style="stroke: #A80036; stroke-width: 1.0;"/><polygon fill="none" points="607.447,423.128,621.38,407.163,620.443,428.332,607.447,423.128" style="stroke: #A80036; stroke-width: 1.0;"/><!--link model.cards.effects.ExtraEffectDecorator to model.cards.effects.Effect--><path d="M591.728,526.29 C602.061,496.081 617.112,452.079 630.807,412.041 " fill="none" id="model.cards.effects.ExtraEffectDecorator-model.cards.effects.Effect" style="stroke: #A80036; stroke-width: 1.0;"/><polygon fill="#A80036" points="632.47,407.179,625.7735,414.401,630.8525,411.9101,633.3434,416.9891,632.47,407.179" style="stroke: #A80036; stroke-width: 1.0;"/><text fill="#000000" font-family="sans-serif" font-size="13" lengthAdjust="spacingAndGlyphs" textLength="31" x="612" y="479.4951">effect</text><!--link model.cards.effects.ExtraEffectDecorator to model.cards.effects.ExtraMarkDecorator--><path d="M629.362,617.077 C648.578,636.758 670.091,658.79 687.744,676.868 " fill="none" id="model.cards.effects.ExtraEffectDecorator-model.cards.effects.ExtraMarkDecorator" style="stroke: #A80036; stroke-width: 1.0;"/><polygon fill="none" points="624.18,621.79,615.216,602.59,634.197,612.009,624.18,621.79" style="stroke: #A80036; stroke-width: 1.0;"/><!--link model.cards.effects.ExtraEffectDecorator to model.cards.effects.ExtraMoveDecorator--><path d="M675.18,610.444 C679.832,612.369 684.456,614.232 689,616 C751.4,640.283 822.569,663.462 880.352,681.175 " fill="none" id="model.cards.effects.ExtraEffectDecorator-model.cards.effects.ExtraMoveDecorator" style="stroke: #A80036; stroke-width: 1.0;"/><polygon fill="none" points="672.272,616.814,656.629,602.52,677.771,603.939,672.272,616.814" style="stroke: #A80036; stroke-width: 1.0;"/><!--link model.cards.effects.Effect to model.cards.effects.PowerupBaseEffect--><path d="M558.798,419.893 C551.946,425.235 544.988,430.318 538,435 C492.174,465.706 437.812,492.145 388.729,512.921 " fill="none" id="model.cards.effects.Effect-model.cards.effects.PowerupBaseEffect" style="stroke: #A80036; stroke-width: 1.0;"/><polygon fill="none" points="554.639,414.252,574.559,407.028,563.492,425.098,554.639,414.252" style="stroke: #A80036; stroke-width: 1.0;"/><!--link model.cards.effects.Effect to model.cards.effects.WeaponBaseEffect--><path d="M767.961,421.753 C801.401,456.092 836.614,492.25 863.104,519.452 " fill="none" id="model.cards.effects.Effect-model.cards.effects.WeaponBaseEffect" style="stroke: #A80036; stroke-width: 1.0;"/><polygon fill="none" points="762.707,426.391,753.768,407.179,772.736,416.624,762.707,426.391" style="stroke: #A80036; stroke-width: 1.0;"/><text fill="#888888" font-family="sans-serif" font-size="10" lengthAdjust="spacingAndGlyphs" textLength="184" x="486" y="805.3809">UMLDoclet 2.0.4, PlantUML 1.2019.06</text><!--
@startuml
    namespace model.cards.effects {

        abstract class Effect [[Effect.html]] {
            #cost: AmmoQuantity
            #targets: TargetType[]
            #description: String
            +getProperties(): Map<String, String>
            +getTargets(): TargetType[]
            +getDescription(): String
            +getCost(): AmmoQuantity
            +setProperties(Map<String, String>): void
            {abstract} +execute(EffectRequest): void
            {abstract} +validate(EffectRequest): boolean
        }

        class EffectValidator [[EffectValidator.html]] {
            {static} ~getSubMap(Map<String, String>, TargetType): Map<String, String>
            {static} ~isMoveValid(EffectRequest, Map<String, String>): boolean
            {static} ~isMoveInMiddleValid(EffectRequest): boolean
            {static} ~isDistanceValid(Map<String, String>, PlayerPosition, List<PlayerPosition>, TargetType): boolean
            {static} ~isPositioningValid(Map<String, String>, PlayerPosition, List<PlayerPosition>): boolean
            {static} ~isMovingToLastTarget(ShootRequest, PlayerPosition, List<PlayerPosition>): boolean
            {static} ~isVisibilityValid(Map<String, String>, PlayerPosition, List<PlayerPosition>): boolean
            {static} ~getPlayersByUsername(List<String>): List<Player>
            {static} ~getTargetPositions(EffectRequest, TargetType): List<PlayerPosition>
            {static} ~isTargetValid(EffectRequest, Map<String, String>, TargetType): boolean
            {static} +isMoveBeforeValid(ShootRequest, Map<String, String>): boolean
            {static} ~isPowerupIndexValid(PowerupRequest): boolean
            {static} ~teleporterValidator(PowerupRequest): boolean
            {static} ~checkAdrenalineMove(ShootRequest): PlayerPosition
        }

        class ExtraDamageDecorator [[ExtraDamageDecorator.html]] {
            +ExtraDamageDecorator(Effect, int[], TargetType)
            +execute(EffectRequest): void
        }

        class ExtraDamageNoMarkDecorator [[ExtraDamageNoMarkDecorator.html]] {
            +ExtraDamageNoMarkDecorator(Effect, int[])
            +execute(EffectRequest): void
        }

        abstract class ExtraEffectDecorator [[ExtraEffectDecorator.html]] {
            {abstract} +execute(EffectRequest): void
            +validate(EffectRequest): boolean
        }

        class ExtraMarkDecorator [[ExtraMarkDecorator.html]] {
            +ExtraMarkDecorator(Effect, int[], TargetType)
            +execute(EffectRequest): void
        }

        class ExtraMoveDecorator [[ExtraMoveDecorator.html]] {
            +ExtraMoveDecorator(Effect, MoveTarget)
            +execute(EffectRequest): void
        }

        class PowerupBaseEffect [[PowerupBaseEffect.html]] {
            +PowerupBaseEffect(Map<String, String>, TargetType[], String)
            +PowerupBaseEffect(AmmoQuantity, Map<String, String>, TargetType[], String)
            +execute(EffectRequest): void
            +validate(EffectRequest): boolean
        }

        class WeaponBaseEffect [[WeaponBaseEffect.html]] {
            +WeaponBaseEffect(AmmoQuantity, Map<String, String>, TargetType[], String)
            +execute(EffectRequest): void
            +validate(EffectRequest): boolean
        }

        java.io.Serializable <|.. Effect
        ExtraEffectDecorator <|- - ExtraDamageDecorator
        ExtraEffectDecorator <|- - ExtraDamageNoMarkDecorator
        Effect <|- - ExtraEffectDecorator
        ExtraEffectDecorator - -> Effect: effect
        ExtraEffectDecorator <|- - ExtraMarkDecorator
        ExtraEffectDecorator <|- - ExtraMoveDecorator
        Effect <|- - PowerupBaseEffect
        Effect <|- - WeaponBaseEffect
    }

    namespace java.io {
        interface Serializable
    }

    center footer UMLDoclet 2.0.4, PlantUML 1.2019.06
@enduml

PlantUML version 1.2019.06(Fri May 24 19:10:25 CEST 2019)
(APACHE source distribution)
Java Runtime: Java(TM) SE Runtime Environment
JVM: Java HotSpot(TM) 64-Bit Server VM
Java Version: 11.0.2+9-LTS
Operating System: Windows 10
OS Version: 10.0
Default Encoding: Cp1252
Language: it
Country: IT
--></g></svg>