<svg xmlns="http://www.w3.org/2000/svg" xmlns:xlink="http://www.w3.org/1999/xlink" contentScriptType="application/ecmascript" contentStyleType="text/css" height="863px" preserveAspectRatio="none" style="width:1396px;height:863px;" version="1.1" viewBox="0 0 1396 863" width="1396px" zoomAndPan="magnify"><defs><filter height="300%" id="f1wanv5i5kkg4b" width="300%" x="-1" y="-1"><feGaussianBlur result="blurOut" stdDeviation="2.0"/><feColorMatrix in="blurOut" result="blurOut2" type="matrix" values="0 0 0 0 0 0 0 0 0 0 0 0 0 0 0 0 0 0 .4 0"/><feOffset dx="4.0" dy="4.0" in="blurOut2" result="blurOut3"/><feBlend in="SourceGraphic" in2="blurOut3" mode="normal"/></filter></defs><g><!--cluster model--><polygon fill="#FFFFFF" filter="url(#f1wanv5i5kkg4b)" points="233.081,157,282.081,157,289.081,180.6094,893.081,180.6094,893.081,631,233.081,631,233.081,157" style="stroke: #000000; stroke-width: 1.5;"/><line style="stroke: #000000; stroke-width: 1.5;" x1="233.081" x2="289.081" y1="180.6094" y2="180.6094"/><text fill="#000000" font-family="sans-serif" font-size="14" font-weight="bold" lengthAdjust="spacingAndGlyphs" textLength="43" x="237.081" y="173.5332">model</text><!--cluster java.io--><polygon fill="#FFFFFF" filter="url(#f1wanv5i5kkg4b)" points="416.081,24,468.081,24,475.081,47.6094,548.081,47.6094,548.081,124,416.081,124,416.081,24" style="stroke: #000000; stroke-width: 1.5;"/><line style="stroke: #000000; stroke-width: 1.5;" x1="416.081" x2="475.081" y1="47.6094" y2="47.6094"/><text fill="#000000" font-family="sans-serif" font-size="14" font-weight="bold" lengthAdjust="spacingAndGlyphs" textLength="46" x="420.081" y="40.5332">java.io</text><!--cluster model.player--><polygon fill="#FFFFFF" filter="url(#f1wanv5i5kkg4b)" points="165.081,714,261.081,714,268.081,737.6094,586.081,737.6094,586.081,814,165.081,814,165.081,714" style="stroke: #000000; stroke-width: 1.5;"/><line style="stroke: #000000; stroke-width: 1.5;" x1="165.081" x2="268.081" y1="737.6094" y2="737.6094"/><text fill="#000000" font-family="sans-serif" font-size="14" font-weight="bold" lengthAdjust="spacingAndGlyphs" textLength="90" x="169.081" y="730.5332">model.player</text><!--cluster model.map--><polygon fill="#FFFFFF" filter="url(#f1wanv5i5kkg4b)" points="814.081,714,896.081,714,903.081,737.6094,936.081,737.6094,936.081,814,814.081,814,814.081,714" style="stroke: #000000; stroke-width: 1.5;"/><line style="stroke: #000000; stroke-width: 1.5;" x1="814.081" x2="903.081" y1="737.6094" y2="737.6094"/><text fill="#000000" font-family="sans-serif" font-size="14" font-weight="bold" lengthAdjust="spacingAndGlyphs" textLength="76" x="818.081" y="730.5332">model.map</text><!--cluster model.cards--><polygon fill="#FFFFFF" filter="url(#f1wanv5i5kkg4b)" points="1043.08,714,1135.08,714,1142.08,737.6094,1278.08,737.6094,1278.08,814,1043.08,814,1043.08,714" style="stroke: #000000; stroke-width: 1.5;"/><line style="stroke: #000000; stroke-width: 1.5;" x1="1043.08" x2="1142.08" y1="737.6094" y2="737.6094"/><text fill="#000000" font-family="sans-serif" font-size="14" font-weight="bold" lengthAdjust="spacingAndGlyphs" textLength="86" x="1047.08" y="730.5332">model.cards</text><!--class model.Game--><a href="Game.html" target="_top" xlink:actuate="onRequest" xlink:show="new" xlink:title="Game.html" xlink:type="simple"><rect fill="#FEFECE" filter="url(#f1wanv5i5kkg4b)" height="421.5703" id="model.Game" style="stroke: #A80036; stroke-width: 1.5;" width="262" x="249.081" y="193"/><ellipse cx="358.831" cy="209" fill="#ADD1B2" rx="11" ry="11" style="stroke: #A80036; stroke-width: 1.0;"/><path d="M361.5966,204.875 Q361.7529,204.6563 361.9404,204.5469 Q362.1279,204.4375 362.3466,204.4375 Q362.7216,204.4375 362.956,204.7031 Q363.1904,204.9531 363.1904,205.5625 L363.1904,207.0156 Q363.1904,207.625 362.956,207.8906 Q362.7216,208.1563 362.3466,208.1563 Q362.0029,208.1563 361.7998,207.9531 Q361.5966,207.7656 361.4873,207.25 Q361.4404,206.8906 361.2529,206.7031 Q360.9248,206.3281 360.3154,206.1094 Q359.706,205.8906 359.081,205.8906 Q358.3154,205.8906 357.6748,206.2188 Q357.0498,206.5469 356.5498,207.2969 Q356.0654,208.0469 356.0654,209.0781 L356.0654,210.1719 Q356.0654,211.4063 356.956,212.2344 Q357.8466,213.0469 359.4404,213.0469 Q360.3779,213.0469 361.0341,212.7969 Q361.4248,212.6406 361.8466,212.2031 Q362.1123,211.9375 362.2529,211.8594 Q362.4091,211.7813 362.6123,211.7813 Q362.9404,211.7813 363.1904,212.0469 Q363.456,212.2969 363.456,212.6406 Q363.456,212.9844 363.1123,213.3906 Q362.6123,213.9688 361.8154,214.2969 Q360.7373,214.75 359.4404,214.75 Q357.9248,214.75 356.7216,214.125 Q355.7373,213.625 355.0498,212.5625 Q354.3623,211.4844 354.3623,210.2031 L354.3623,209.0469 Q354.3623,207.7188 354.9716,206.5781 Q355.5966,205.4219 356.6904,204.8125 Q357.7841,204.1875 359.0185,204.1875 Q359.7529,204.1875 360.3935,204.3594 Q361.0498,204.5156 361.5966,204.875 Z "/><text fill="#000000" font-family="sans-serif" font-size="12" lengthAdjust="spacingAndGlyphs" textLength="34" x="379.331" y="213.9102">Game</text><line style="stroke: #A80036; stroke-width: 1.5;" x1="250.081" x2="510.081" y1="225" y2="225"/><ellipse cx="260.081" cy="237.418" fill="none" rx="3" ry="3" style="stroke: #038048; stroke-width: 1.0;"/><text fill="#000000" font-family="sans-serif" font-size="11" lengthAdjust="spacingAndGlyphs" text-decoration="underline" textLength="67" x="269.081" y="240.4189">rand: Random</text><line style="stroke: #A80036; stroke-width: 1.5;" x1="250.081" x2="510.081" y1="246.8359" y2="246.8359"/><ellipse cx="260.081" cy="259.2539" fill="#84BE84" rx="3" ry="3" style="stroke: #038048; stroke-width: 1.0;"/><text fill="#000000" font-family="sans-serif" font-size="11" lengthAdjust="spacingAndGlyphs" textLength="47" x="269.081" y="262.2549">init(): void</text><ellipse cx="260.081" cy="273.0898" fill="#84BE84" rx="3" ry="3" style="stroke: #038048; stroke-width: 1.0;"/><text fill="#000000" font-family="sans-serif" font-size="11" lengthAdjust="spacingAndGlyphs" textLength="236" x="269.081" y="276.0908">loadGame(Game, List&lt;NotTransientPlayer&gt;): void</text><ellipse cx="260.081" cy="286.9258" fill="#84BE84" rx="3" ry="3" style="stroke: #038048; stroke-width: 1.0;"/><text fill="#000000" font-family="sans-serif" font-size="11" lengthAdjust="spacingAndGlyphs" textLength="134" x="269.081" y="289.9268">getTrackerPoints(): Integer[]</text><ellipse cx="260.081" cy="300.7617" fill="#84BE84" rx="3" ry="3" style="stroke: #038048; stroke-width: 1.0;"/><text fill="#000000" font-family="sans-serif" font-size="11" lengthAdjust="spacingAndGlyphs" textLength="107" x="269.081" y="303.7627">getState(): GameState</text><ellipse cx="260.081" cy="314.5977" fill="#84BE84" rx="3" ry="3" style="stroke: #038048; stroke-width: 1.0;"/><text fill="#000000" font-family="sans-serif" font-size="11" lengthAdjust="spacingAndGlyphs" textLength="127" x="269.081" y="317.5986">setState(GameState): void</text><ellipse cx="260.081" cy="328.4336" fill="#84BE84" rx="3" ry="3" style="stroke: #038048; stroke-width: 1.0;"/><text fill="#000000" font-family="sans-serif" font-size="11" lengthAdjust="spacingAndGlyphs" textLength="108" x="269.081" y="331.4346">setGameMap(int): void</text><ellipse cx="260.081" cy="342.2695" fill="#84BE84" rx="3" ry="3" style="stroke: #038048; stroke-width: 1.0;"/><text fill="#000000" font-family="sans-serif" font-size="11" lengthAdjust="spacingAndGlyphs" textLength="116" x="269.081" y="345.2705">setKillShotNum(int): void</text><ellipse cx="260.081" cy="356.1055" fill="#84BE84" rx="3" ry="3" style="stroke: #038048; stroke-width: 1.0;"/><text fill="#000000" font-family="sans-serif" font-size="11" lengthAdjust="spacingAndGlyphs" textLength="135" x="269.081" y="359.1064">addPlayer(UserPlayer): void</text><ellipse cx="260.081" cy="369.9414" fill="#84BE84" rx="3" ry="3" style="stroke: #038048; stroke-width: 1.0;"/><text fill="#000000" font-family="sans-serif" font-size="11" lengthAdjust="spacingAndGlyphs" textLength="98" x="269.081" y="372.9424">playersNumber(): int</text><ellipse cx="260.081" cy="383.7773" fill="#84BE84" rx="3" ry="3" style="stroke: #038048; stroke-width: 1.0;"/><text fill="#000000" font-family="sans-serif" font-size="11" lengthAdjust="spacingAndGlyphs" textLength="154" x="269.081" y="386.7783">isGameReadyToStart(): boolean</text><ellipse cx="260.081" cy="397.6133" fill="#84BE84" rx="3" ry="3" style="stroke: #038048; stroke-width: 1.0;"/><text fill="#000000" font-family="sans-serif" font-size="11" lengthAdjust="spacingAndGlyphs" textLength="84" x="269.081" y="400.6143">startGame(): void</text><ellipse cx="260.081" cy="411.4492" fill="#84BE84" rx="3" ry="3" style="stroke: #038048; stroke-width: 1.0;"/><text fill="#000000" font-family="sans-serif" font-size="11" lengthAdjust="spacingAndGlyphs" textLength="101" x="269.081" y="414.4502">initializeDecks(): void</text><ellipse cx="260.081" cy="425.2852" fill="#84BE84" rx="3" ry="3" style="stroke: #038048; stroke-width: 1.0;"/><text fill="#000000" font-family="sans-serif" font-size="11" lengthAdjust="spacingAndGlyphs" textLength="83" x="269.081" y="428.2861">stopGame(): void</text><ellipse cx="260.081" cy="439.1211" fill="#84BE84" rx="3" ry="3" style="stroke: #038048; stroke-width: 1.0;"/><text fill="#000000" font-family="sans-serif" font-size="11" lengthAdjust="spacingAndGlyphs" textLength="99" x="269.081" y="442.1221">remainingSkulls(): int</text><ellipse cx="260.081" cy="452.957" fill="#84BE84" rx="3" ry="3" style="stroke: #038048; stroke-width: 1.0;"/><text fill="#000000" font-family="sans-serif" font-size="11" lengthAdjust="spacingAndGlyphs" textLength="122" x="269.081" y="455.958">addKillShot(KillShot): void</text><ellipse cx="260.081" cy="466.793" fill="#84BE84" rx="3" ry="3" style="stroke: #038048; stroke-width: 1.0;"/><text fill="#000000" font-family="sans-serif" font-size="11" lengthAdjust="spacingAndGlyphs" textLength="113" x="269.081" y="469.7939">isBotPresent(): boolean</text><ellipse cx="260.081" cy="480.6289" fill="#84BE84" rx="3" ry="3" style="stroke: #038048; stroke-width: 1.0;"/><text fill="#000000" font-family="sans-serif" font-size="11" lengthAdjust="spacingAndGlyphs" textLength="103" x="269.081" y="483.6299">setBot(boolean): void</text><ellipse cx="260.081" cy="494.4648" fill="#84BE84" rx="3" ry="3" style="stroke: #038048; stroke-width: 1.0;"/><text fill="#000000" font-family="sans-serif" font-size="11" lengthAdjust="spacingAndGlyphs" textLength="107" x="269.081" y="497.4658">buildTerminator(): void</text><ellipse cx="260.081" cy="508.3008" fill="#84BE84" rx="3" ry="3" style="stroke: #038048; stroke-width: 1.0;"/><text fill="#000000" font-family="sans-serif" font-size="11" lengthAdjust="spacingAndGlyphs" textLength="224" x="269.081" y="511.3018">spawnPlayer(UserPlayer, PlayerPosition): void</text><ellipse cx="260.081" cy="522.1367" fill="#84BE84" rx="3" ry="3" style="stroke: #038048; stroke-width: 1.0;"/><text fill="#000000" font-family="sans-serif" font-size="11" lengthAdjust="spacingAndGlyphs" textLength="186" x="269.081" y="525.1377">spawnTerminator(PlayerPosition): void</text><ellipse cx="260.081" cy="535.9727" fill="#84BE84" rx="3" ry="3" style="stroke: #038048; stroke-width: 1.0;"/><text fill="#000000" font-family="sans-serif" font-size="11" lengthAdjust="spacingAndGlyphs" textLength="123" x="269.081" y="538.9736">isGameStarted(): boolean</text><polygon fill="#4177AF" points="260.081,545.8086,256.081,551.8086,264.081,551.8086" style="stroke: #1963A0; stroke-width: 1.0;"/><text fill="#000000" font-family="sans-serif" font-size="11" lengthAdjust="spacingAndGlyphs" textLength="96" x="269.081" y="552.8096">getKillShotNum(): int</text><ellipse cx="260.081" cy="563.6445" fill="#84BE84" rx="3" ry="3" style="stroke: #038048; stroke-width: 1.0;"/><text fill="#000000" font-family="sans-serif" font-size="11" lengthAdjust="spacingAndGlyphs" textLength="202" x="269.081" y="566.6455">getUserPlayerByUsername(String): Player</text><ellipse cx="260.081" cy="577.4805" fill="#84BE84" rx="3" ry="3" style="stroke: #038048; stroke-width: 1.0;"/><text fill="#000000" font-family="sans-serif" font-size="11" lengthAdjust="spacingAndGlyphs" textLength="163" x="269.081" y="580.4814">doesPlayerExists(String): boolean</text><ellipse cx="260.081" cy="591.3164" fill="#84BE84" rx="3" ry="3" style="stroke: #038048; stroke-width: 1.0;"/><text fill="#000000" font-family="sans-serif" font-size="11" lengthAdjust="spacingAndGlyphs" textLength="166" x="269.081" y="594.3174">getPlayersDamage(): List&lt;Integer&gt;</text><ellipse cx="260.081" cy="605.1523" fill="#84BE84" rx="3" ry="3" style="stroke: #038048; stroke-width: 1.0;"/><text fill="#000000" font-family="sans-serif" font-size="11" lengthAdjust="spacingAndGlyphs" textLength="157" x="269.081" y="608.1533">getPlayerByName(String): Player</text></a><!--class model.GameSerialized--><a href="GameSerialized.html" target="_top" xlink:actuate="onRequest" xlink:show="new" xlink:title="GameSerialized.html" xlink:type="simple"><rect fill="#FEFECE" filter="url(#f1wanv5i5kkg4b)" height="144.8516" id="model.GameSerialized" style="stroke: #A80036; stroke-width: 1.5;" width="251" x="625.581" y="331.5"/><ellipse cx="702.831" cy="347.5" fill="#ADD1B2" rx="11" ry="11" style="stroke: #A80036; stroke-width: 1.0;"/><path d="M705.5966,343.375 Q705.7529,343.1563 705.9404,343.0469 Q706.1279,342.9375 706.3466,342.9375 Q706.7216,342.9375 706.956,343.2031 Q707.1904,343.4531 707.1904,344.0625 L707.1904,345.5156 Q707.1904,346.125 706.956,346.3906 Q706.7216,346.6563 706.3466,346.6563 Q706.0029,346.6563 705.7998,346.4531 Q705.5966,346.2656 705.4873,345.75 Q705.4404,345.3906 705.2529,345.2031 Q704.9248,344.8281 704.3154,344.6094 Q703.706,344.3906 703.081,344.3906 Q702.3154,344.3906 701.6748,344.7188 Q701.0498,345.0469 700.5498,345.7969 Q700.0654,346.5469 700.0654,347.5781 L700.0654,348.6719 Q700.0654,349.9063 700.956,350.7344 Q701.8466,351.5469 703.4404,351.5469 Q704.3779,351.5469 705.0341,351.2969 Q705.4248,351.1406 705.8466,350.7031 Q706.1123,350.4375 706.2529,350.3594 Q706.4091,350.2813 706.6123,350.2813 Q706.9404,350.2813 707.1904,350.5469 Q707.456,350.7969 707.456,351.1406 Q707.456,351.4844 707.1123,351.8906 Q706.6123,352.4688 705.8154,352.7969 Q704.7373,353.25 703.4404,353.25 Q701.9248,353.25 700.7216,352.625 Q699.7373,352.125 699.0498,351.0625 Q698.3623,349.9844 698.3623,348.7031 L698.3623,347.5469 Q698.3623,346.2188 698.9716,345.0781 Q699.5966,343.9219 700.6904,343.3125 Q701.7841,342.6875 703.0185,342.6875 Q703.7529,342.6875 704.3935,342.8594 Q705.0498,343.0156 705.5966,343.375 Z "/><text fill="#000000" font-family="sans-serif" font-size="12" lengthAdjust="spacingAndGlyphs" textLength="88" x="723.331" y="352.4102">GameSerialized</text><line style="stroke: #A80036; stroke-width: 1.5;" x1="626.581" x2="875.581" y1="363.5" y2="363.5"/><line style="stroke: #A80036; stroke-width: 1.5;" x1="626.581" x2="875.581" y1="371.5" y2="371.5"/><ellipse cx="636.581" cy="383.918" fill="#84BE84" rx="3" ry="3" style="stroke: #038048; stroke-width: 1.0;"/><text fill="#000000" font-family="sans-serif" font-size="11" lengthAdjust="spacingAndGlyphs" textLength="111" x="645.581" y="386.9189">GameSerialized(String)</text><ellipse cx="636.581" cy="397.7539" fill="#84BE84" rx="3" ry="3" style="stroke: #038048; stroke-width: 1.0;"/><text fill="#000000" font-family="sans-serif" font-size="11" lengthAdjust="spacingAndGlyphs" textLength="113" x="645.581" y="400.7549">isBotPresent(): boolean</text><ellipse cx="636.581" cy="411.5898" fill="#84BE84" rx="3" ry="3" style="stroke: #038048; stroke-width: 1.0;"/><text fill="#000000" font-family="sans-serif" font-size="11" lengthAdjust="spacingAndGlyphs" textLength="132" x="645.581" y="414.5908">isBotActionDone(): boolean</text><ellipse cx="636.581" cy="425.4258" fill="#84BE84" rx="3" ry="3" style="stroke: #038048; stroke-width: 1.0;"/><text fill="#000000" font-family="sans-serif" font-size="11" lengthAdjust="spacingAndGlyphs" textLength="96" x="645.581" y="428.4268">getKillShotNum(): int</text><ellipse cx="636.581" cy="439.2617" fill="#84BE84" rx="3" ry="3" style="stroke: #038048; stroke-width: 1.0;"/><text fill="#000000" font-family="sans-serif" font-size="11" lengthAdjust="spacingAndGlyphs" textLength="69" x="645.581" y="442.2627">getPoints(): int</text><ellipse cx="636.581" cy="453.0977" fill="#84BE84" rx="3" ry="3" style="stroke: #038048; stroke-width: 1.0;"/><text fill="#000000" font-family="sans-serif" font-size="11" lengthAdjust="spacingAndGlyphs" textLength="225" x="645.581" y="456.0986">getPlayerWeapons(String): List&lt;WeaponCard&gt;</text><ellipse cx="636.581" cy="466.9336" fill="#84BE84" rx="3" ry="3" style="stroke: #038048; stroke-width: 1.0;"/><text fill="#000000" font-family="sans-serif" font-size="11" lengthAdjust="spacingAndGlyphs" textLength="143" x="645.581" y="469.9346">getCurrentState(): GameState</text></a><!--class java.io.Serializable--><rect fill="#FEFECE" filter="url(#f1wanv5i5kkg4b)" height="48" id="java.io.Serializable" style="stroke: #A80036; stroke-width: 1.5;" width="99" x="432.581" y="60"/><ellipse cx="447.581" cy="76" fill="#B4A7E5" rx="11" ry="11" style="stroke: #A80036; stroke-width: 1.0;"/><path d="M448.5341,72.6406 L448.5341,79.2969 L450.2529,79.2969 Q450.8623,79.2969 451.1279,79.5313 Q451.3935,79.7656 451.3935,80.1563 Q451.3935,80.5313 451.1279,80.7656 Q450.8623,81 450.2529,81 L445.1123,81 Q444.5029,81 444.2373,80.7656 Q443.9716,80.5313 443.9716,80.1406 Q443.9716,79.7656 444.2373,79.5313 Q444.5029,79.2969 445.1123,79.2969 L446.831,79.2969 L446.831,72.6406 L445.1123,72.6406 Q444.5029,72.6406 444.2373,72.4063 Q443.9716,72.1719 443.9716,71.7813 Q443.9716,71.4063 444.2373,71.1719 Q444.5029,70.9375 445.1123,70.9375 L450.2529,70.9375 Q450.8623,70.9375 451.1279,71.1719 Q451.3935,71.4063 451.3935,71.7813 Q451.3935,72.1719 451.1279,72.4063 Q450.8623,72.6406 450.2529,72.6406 L448.5341,72.6406 Z "/><text fill="#000000" font-family="sans-serif" font-size="12" font-style="italic" lengthAdjust="spacingAndGlyphs" textLength="67" x="461.581" y="80.9102">Serializable</text><line style="stroke: #A80036; stroke-width: 1.5;" x1="433.581" x2="530.581" y1="92" y2="92"/><line style="stroke: #A80036; stroke-width: 1.5;" x1="433.581" x2="530.581" y1="100" y2="100"/><!--class model.player.Player--><rect fill="#FEFECE" filter="url(#f1wanv5i5kkg4b)" height="48" id="model.player.Player" style="stroke: #A80036; stroke-width: 1.5;" width="66" x="310.081" y="750"/><ellipse cx="325.081" cy="766" fill="#ADD1B2" rx="11" ry="11" style="stroke: #A80036; stroke-width: 1.0;"/><path d="M327.8466,761.875 Q328.0029,761.6563 328.1904,761.5469 Q328.3779,761.4375 328.5966,761.4375 Q328.9716,761.4375 329.206,761.7031 Q329.4404,761.9531 329.4404,762.5625 L329.4404,764.0156 Q329.4404,764.625 329.206,764.8906 Q328.9716,765.1563 328.5966,765.1563 Q328.2529,765.1563 328.0498,764.9531 Q327.8466,764.7656 327.7373,764.25 Q327.6904,763.8906 327.5029,763.7031 Q327.1748,763.3281 326.5654,763.1094 Q325.956,762.8906 325.331,762.8906 Q324.5654,762.8906 323.9248,763.2188 Q323.2998,763.5469 322.7998,764.2969 Q322.3154,765.0469 322.3154,766.0781 L322.3154,767.1719 Q322.3154,768.4063 323.206,769.2344 Q324.0966,770.0469 325.6904,770.0469 Q326.6279,770.0469 327.2841,769.7969 Q327.6748,769.6406 328.0966,769.2031 Q328.3623,768.9375 328.5029,768.8594 Q328.6591,768.7813 328.8623,768.7813 Q329.1904,768.7813 329.4404,769.0469 Q329.706,769.2969 329.706,769.6406 Q329.706,769.9844 329.3623,770.3906 Q328.8623,770.9688 328.0654,771.2969 Q326.9873,771.75 325.6904,771.75 Q324.1748,771.75 322.9716,771.125 Q321.9873,770.625 321.2998,769.5625 Q320.6123,768.4844 320.6123,767.2031 L320.6123,766.0469 Q320.6123,764.7188 321.2216,763.5781 Q321.8466,762.4219 322.9404,761.8125 Q324.0341,761.1875 325.2685,761.1875 Q326.0029,761.1875 326.6435,761.3594 Q327.2998,761.5156 327.8466,761.875 Z "/><text fill="#000000" font-family="sans-serif" font-size="12" lengthAdjust="spacingAndGlyphs" textLength="34" x="339.081" y="770.9102">Player</text><line style="stroke: #A80036; stroke-width: 1.5;" x1="311.081" x2="375.081" y1="782" y2="782"/><line style="stroke: #A80036; stroke-width: 1.5;" x1="311.081" x2="375.081" y1="790" y2="790"/><!--class model.player.UserPlayer--><rect fill="#FEFECE" filter="url(#f1wanv5i5kkg4b)" height="48" id="model.player.UserPlayer" style="stroke: #A80036; stroke-width: 1.5;" width="93" x="181.581" y="750"/><ellipse cx="196.581" cy="766" fill="#ADD1B2" rx="11" ry="11" style="stroke: #A80036; stroke-width: 1.0;"/><path d="M199.3466,761.875 Q199.5029,761.6563 199.6904,761.5469 Q199.8779,761.4375 200.0966,761.4375 Q200.4716,761.4375 200.706,761.7031 Q200.9404,761.9531 200.9404,762.5625 L200.9404,764.0156 Q200.9404,764.625 200.706,764.8906 Q200.4716,765.1563 200.0966,765.1563 Q199.7529,765.1563 199.5498,764.9531 Q199.3466,764.7656 199.2373,764.25 Q199.1904,763.8906 199.0029,763.7031 Q198.6748,763.3281 198.0654,763.1094 Q197.456,762.8906 196.831,762.8906 Q196.0654,762.8906 195.4248,763.2188 Q194.7998,763.5469 194.2998,764.2969 Q193.8154,765.0469 193.8154,766.0781 L193.8154,767.1719 Q193.8154,768.4063 194.706,769.2344 Q195.5966,770.0469 197.1904,770.0469 Q198.1279,770.0469 198.7841,769.7969 Q199.1748,769.6406 199.5966,769.2031 Q199.8623,768.9375 200.0029,768.8594 Q200.1591,768.7813 200.3623,768.7813 Q200.6904,768.7813 200.9404,769.0469 Q201.206,769.2969 201.206,769.6406 Q201.206,769.9844 200.8623,770.3906 Q200.3623,770.9688 199.5654,771.2969 Q198.4873,771.75 197.1904,771.75 Q195.6748,771.75 194.4716,771.125 Q193.4873,770.625 192.7998,769.5625 Q192.1123,768.4844 192.1123,767.2031 L192.1123,766.0469 Q192.1123,764.7188 192.7216,763.5781 Q193.3466,762.4219 194.4404,761.8125 Q195.5341,761.1875 196.7685,761.1875 Q197.5029,761.1875 198.1435,761.3594 Q198.7998,761.5156 199.3466,761.875 Z "/><text fill="#000000" font-family="sans-serif" font-size="12" lengthAdjust="spacingAndGlyphs" textLength="61" x="210.581" y="770.9102">UserPlayer</text><line style="stroke: #A80036; stroke-width: 1.5;" x1="182.581" x2="273.581" y1="782" y2="782"/><line style="stroke: #A80036; stroke-width: 1.5;" x1="182.581" x2="273.581" y1="790" y2="790"/><!--class model.player.KillShot--><rect fill="#FEFECE" filter="url(#f1wanv5i5kkg4b)" height="48" id="model.player.KillShot" style="stroke: #A80036; stroke-width: 1.5;" width="74" x="411.081" y="750"/><ellipse cx="426.081" cy="766" fill="#ADD1B2" rx="11" ry="11" style="stroke: #A80036; stroke-width: 1.0;"/><path d="M428.8466,761.875 Q429.0029,761.6563 429.1904,761.5469 Q429.3779,761.4375 429.5966,761.4375 Q429.9716,761.4375 430.206,761.7031 Q430.4404,761.9531 430.4404,762.5625 L430.4404,764.0156 Q430.4404,764.625 430.206,764.8906 Q429.9716,765.1563 429.5966,765.1563 Q429.2529,765.1563 429.0498,764.9531 Q428.8466,764.7656 428.7373,764.25 Q428.6904,763.8906 428.5029,763.7031 Q428.1748,763.3281 427.5654,763.1094 Q426.956,762.8906 426.331,762.8906 Q425.5654,762.8906 424.9248,763.2188 Q424.2998,763.5469 423.7998,764.2969 Q423.3154,765.0469 423.3154,766.0781 L423.3154,767.1719 Q423.3154,768.4063 424.206,769.2344 Q425.0966,770.0469 426.6904,770.0469 Q427.6279,770.0469 428.2841,769.7969 Q428.6748,769.6406 429.0966,769.2031 Q429.3623,768.9375 429.5029,768.8594 Q429.6591,768.7813 429.8623,768.7813 Q430.1904,768.7813 430.4404,769.0469 Q430.706,769.2969 430.706,769.6406 Q430.706,769.9844 430.3623,770.3906 Q429.8623,770.9688 429.0654,771.2969 Q427.9873,771.75 426.6904,771.75 Q425.1748,771.75 423.9716,771.125 Q422.9873,770.625 422.2998,769.5625 Q421.6123,768.4844 421.6123,767.2031 L421.6123,766.0469 Q421.6123,764.7188 422.2216,763.5781 Q422.8466,762.4219 423.9404,761.8125 Q425.0341,761.1875 426.2685,761.1875 Q427.0029,761.1875 427.6435,761.3594 Q428.2998,761.5156 428.8466,761.875 Z "/><text fill="#000000" font-family="sans-serif" font-size="12" lengthAdjust="spacingAndGlyphs" textLength="42" x="440.081" y="770.9102">KillShot</text><line style="stroke: #A80036; stroke-width: 1.5;" x1="412.081" x2="484.081" y1="782" y2="782"/><line style="stroke: #A80036; stroke-width: 1.5;" x1="412.081" x2="484.081" y1="790" y2="790"/><!--class model.player.Bot--><rect fill="#FEFECE" filter="url(#f1wanv5i5kkg4b)" height="48" id="model.player.Bot" style="stroke: #A80036; stroke-width: 1.5;" width="50" x="520.081" y="750"/><ellipse cx="535.081" cy="766" fill="#ADD1B2" rx="11" ry="11" style="stroke: #A80036; stroke-width: 1.0;"/><path d="M537.8466,761.875 Q538.0029,761.6563 538.1904,761.5469 Q538.3779,761.4375 538.5966,761.4375 Q538.9716,761.4375 539.206,761.7031 Q539.4404,761.9531 539.4404,762.5625 L539.4404,764.0156 Q539.4404,764.625 539.206,764.8906 Q538.9716,765.1563 538.5966,765.1563 Q538.2529,765.1563 538.0498,764.9531 Q537.8466,764.7656 537.7373,764.25 Q537.6904,763.8906 537.5029,763.7031 Q537.1748,763.3281 536.5654,763.1094 Q535.956,762.8906 535.331,762.8906 Q534.5654,762.8906 533.9248,763.2188 Q533.2998,763.5469 532.7998,764.2969 Q532.3154,765.0469 532.3154,766.0781 L532.3154,767.1719 Q532.3154,768.4063 533.206,769.2344 Q534.0966,770.0469 535.6904,770.0469 Q536.6279,770.0469 537.2841,769.7969 Q537.6748,769.6406 538.0966,769.2031 Q538.3623,768.9375 538.5029,768.8594 Q538.6591,768.7813 538.8623,768.7813 Q539.1904,768.7813 539.4404,769.0469 Q539.706,769.2969 539.706,769.6406 Q539.706,769.9844 539.3623,770.3906 Q538.8623,770.9688 538.0654,771.2969 Q536.9873,771.75 535.6904,771.75 Q534.1748,771.75 532.9716,771.125 Q531.9873,770.625 531.2998,769.5625 Q530.6123,768.4844 530.6123,767.2031 L530.6123,766.0469 Q530.6123,764.7188 531.2216,763.5781 Q531.8466,762.4219 532.9404,761.8125 Q534.0341,761.1875 535.2685,761.1875 Q536.0029,761.1875 536.6435,761.3594 Q537.2998,761.5156 537.8466,761.875 Z "/><text fill="#000000" font-family="sans-serif" font-size="12" lengthAdjust="spacingAndGlyphs" textLength="18" x="549.081" y="770.9102">Bot</text><line style="stroke: #A80036; stroke-width: 1.5;" x1="521.081" x2="569.081" y1="782" y2="782"/><line style="stroke: #A80036; stroke-width: 1.5;" x1="521.081" x2="569.081" y1="790" y2="790"/><!--class model.map.GameMap--><rect fill="#FEFECE" filter="url(#f1wanv5i5kkg4b)" height="48" id="model.map.GameMap" style="stroke: #A80036; stroke-width: 1.5;" width="89" x="830.581" y="750"/><ellipse cx="845.581" cy="766" fill="#ADD1B2" rx="11" ry="11" style="stroke: #A80036; stroke-width: 1.0;"/><path d="M848.3466,761.875 Q848.5029,761.6563 848.6904,761.5469 Q848.8779,761.4375 849.0966,761.4375 Q849.4716,761.4375 849.706,761.7031 Q849.9404,761.9531 849.9404,762.5625 L849.9404,764.0156 Q849.9404,764.625 849.706,764.8906 Q849.4716,765.1563 849.0966,765.1563 Q848.7529,765.1563 848.5498,764.9531 Q848.3466,764.7656 848.2373,764.25 Q848.1904,763.8906 848.0029,763.7031 Q847.6748,763.3281 847.0654,763.1094 Q846.456,762.8906 845.831,762.8906 Q845.0654,762.8906 844.4248,763.2188 Q843.7998,763.5469 843.2998,764.2969 Q842.8154,765.0469 842.8154,766.0781 L842.8154,767.1719 Q842.8154,768.4063 843.706,769.2344 Q844.5966,770.0469 846.1904,770.0469 Q847.1279,770.0469 847.7841,769.7969 Q848.1748,769.6406 848.5966,769.2031 Q848.8623,768.9375 849.0029,768.8594 Q849.1591,768.7813 849.3623,768.7813 Q849.6904,768.7813 849.9404,769.0469 Q850.206,769.2969 850.206,769.6406 Q850.206,769.9844 849.8623,770.3906 Q849.3623,770.9688 848.5654,771.2969 Q847.4873,771.75 846.1904,771.75 Q844.6748,771.75 843.4716,771.125 Q842.4873,770.625 841.7998,769.5625 Q841.1123,768.4844 841.1123,767.2031 L841.1123,766.0469 Q841.1123,764.7188 841.7216,763.5781 Q842.3466,762.4219 843.4404,761.8125 Q844.5341,761.1875 845.7685,761.1875 Q846.5029,761.1875 847.1435,761.3594 Q847.7998,761.5156 848.3466,761.875 Z "/><text fill="#000000" font-family="sans-serif" font-size="12" lengthAdjust="spacingAndGlyphs" textLength="57" x="859.581" y="770.9102">GameMap</text><line style="stroke: #A80036; stroke-width: 1.5;" x1="831.581" x2="918.581" y1="782" y2="782"/><line style="stroke: #A80036; stroke-width: 1.5;" x1="831.581" x2="918.581" y1="790" y2="790"/><!--class model.cards.Deck--><rect fill="#FEFECE" filter="url(#f1wanv5i5kkg4b)" height="48" id="model.cards.Deck" style="stroke: #A80036; stroke-width: 1.5;" width="60" x="1059.08" y="750"/><ellipse cx="1074.08" cy="766" fill="#ADD1B2" rx="11" ry="11" style="stroke: #A80036; stroke-width: 1.0;"/><path d="M1076.8456,761.875 Q1077.0019,761.6563 1077.1894,761.5469 Q1077.3769,761.4375 1077.5956,761.4375 Q1077.9706,761.4375 1078.205,761.7031 Q1078.4394,761.9531 1078.4394,762.5625 L1078.4394,764.0156 Q1078.4394,764.625 1078.205,764.8906 Q1077.9706,765.1563 1077.5956,765.1563 Q1077.2519,765.1563 1077.0488,764.9531 Q1076.8456,764.7656 1076.7363,764.25 Q1076.6894,763.8906 1076.5019,763.7031 Q1076.1738,763.3281 1075.5644,763.1094 Q1074.955,762.8906 1074.33,762.8906 Q1073.5644,762.8906 1072.9238,763.2188 Q1072.2988,763.5469 1071.7988,764.2969 Q1071.3144,765.0469 1071.3144,766.0781 L1071.3144,767.1719 Q1071.3144,768.4063 1072.205,769.2344 Q1073.0956,770.0469 1074.6894,770.0469 Q1075.6269,770.0469 1076.2831,769.7969 Q1076.6738,769.6406 1077.0956,769.2031 Q1077.3613,768.9375 1077.5019,768.8594 Q1077.6581,768.7813 1077.8613,768.7813 Q1078.1894,768.7813 1078.4394,769.0469 Q1078.705,769.2969 1078.705,769.6406 Q1078.705,769.9844 1078.3613,770.3906 Q1077.8613,770.9688 1077.0644,771.2969 Q1075.9863,771.75 1074.6894,771.75 Q1073.1738,771.75 1071.9706,771.125 Q1070.9863,770.625 1070.2988,769.5625 Q1069.6113,768.4844 1069.6113,767.2031 L1069.6113,766.0469 Q1069.6113,764.7188 1070.2206,763.5781 Q1070.8456,762.4219 1071.9394,761.8125 Q1073.0331,761.1875 1074.2675,761.1875 Q1075.0019,761.1875 1075.6425,761.3594 Q1076.2988,761.5156 1076.8456,761.875 Z "/><text fill="#000000" font-family="sans-serif" font-size="12" lengthAdjust="spacingAndGlyphs" textLength="28" x="1088.08" y="770.9102">Deck</text><line style="stroke: #A80036; stroke-width: 1.5;" x1="1060.08" x2="1118.08" y1="782" y2="782"/><line style="stroke: #A80036; stroke-width: 1.5;" x1="1060.08" x2="1118.08" y1="790" y2="790"/><!--class model.cards.PowerupCard--><rect fill="#FEFECE" filter="url(#f1wanv5i5kkg4b)" height="48" id="model.cards.PowerupCard" style="stroke: #A80036; stroke-width: 1.5;" width="108" x="1154.08" y="750"/><ellipse cx="1169.08" cy="766" fill="#ADD1B2" rx="11" ry="11" style="stroke: #A80036; stroke-width: 1.0;"/><path d="M1171.8456,761.875 Q1172.0019,761.6563 1172.1894,761.5469 Q1172.3769,761.4375 1172.5956,761.4375 Q1172.9706,761.4375 1173.205,761.7031 Q1173.4394,761.9531 1173.4394,762.5625 L1173.4394,764.0156 Q1173.4394,764.625 1173.205,764.8906 Q1172.9706,765.1563 1172.5956,765.1563 Q1172.2519,765.1563 1172.0488,764.9531 Q1171.8456,764.7656 1171.7363,764.25 Q1171.6894,763.8906 1171.5019,763.7031 Q1171.1738,763.3281 1170.5644,763.1094 Q1169.955,762.8906 1169.33,762.8906 Q1168.5644,762.8906 1167.9238,763.2188 Q1167.2988,763.5469 1166.7988,764.2969 Q1166.3144,765.0469 1166.3144,766.0781 L1166.3144,767.1719 Q1166.3144,768.4063 1167.205,769.2344 Q1168.0956,770.0469 1169.6894,770.0469 Q1170.6269,770.0469 1171.2831,769.7969 Q1171.6738,769.6406 1172.0956,769.2031 Q1172.3613,768.9375 1172.5019,768.8594 Q1172.6581,768.7813 1172.8613,768.7813 Q1173.1894,768.7813 1173.4394,769.0469 Q1173.705,769.2969 1173.705,769.6406 Q1173.705,769.9844 1173.3613,770.3906 Q1172.8613,770.9688 1172.0644,771.2969 Q1170.9863,771.75 1169.6894,771.75 Q1168.1738,771.75 1166.9706,771.125 Q1165.9863,770.625 1165.2988,769.5625 Q1164.6113,768.4844 1164.6113,767.2031 L1164.6113,766.0469 Q1164.6113,764.7188 1165.2206,763.5781 Q1165.8456,762.4219 1166.9394,761.8125 Q1168.0331,761.1875 1169.2675,761.1875 Q1170.0019,761.1875 1170.6425,761.3594 Q1171.2988,761.5156 1171.8456,761.875 Z "/><text fill="#000000" font-family="sans-serif" font-size="12" lengthAdjust="spacingAndGlyphs" textLength="76" x="1183.08" y="770.9102">PowerupCard</text><line style="stroke: #A80036; stroke-width: 1.5;" x1="1155.08" x2="1261.08" y1="782" y2="782"/><line style="stroke: #A80036; stroke-width: 1.5;" x1="1155.08" x2="1261.08" y1="790" y2="790"/><!--link java.io.Serializable to model.Game--><path d="M468.531,127.244 C462.692,145.449 455.393,168.203 447.508,192.786 " fill="none" id="java.io.Serializable-model.Game" style="stroke: #A80036; stroke-width: 1.0; stroke-dasharray: 7.0,7.0;"/><polygon fill="none" points="461.889,125.032,474.663,108.126,475.22,129.308,461.889,125.032" style="stroke: #A80036; stroke-width: 1.0;"/><!--link model.Game to model.Game--><path d="M511.247,358.87 C531.943,365.545 546.081,380.589 546.081,404 C546.081,425.582 534.066,440.053 515.974,447.413 " fill="none" id="model.Game-model.Game" style="stroke: #A80036; stroke-width: 1.0;"/><polygon fill="#A80036" points="511.247,449.13,521.0719,449.8161,515.9464,447.4225,518.34,442.297,511.247,449.13" style="stroke: #A80036; stroke-width: 1.0;"/><text fill="#000000" font-family="sans-serif" font-size="13" lengthAdjust="spacingAndGlyphs" textLength="49" x="552.081" y="409.4951">instance</text><!--link model.Game to model.player.Player--><path d="M248.988,602.157 C242.713,616.946 237.288,631.97 233.081,647 C226.971,668.828 218.169,680.929 233.081,698 C241.785,707.965 280.648,699.34 292.081,706 C307.878,715.202 320.412,731.4035 329.101,745.5692 " fill="none" id="model.Game-model.player.Player" style="stroke: #A80036; stroke-width: 1.0;"/><polygon fill="#A80036" points="331.674,749.89,330.5061,740.1106,329.1158,745.594,323.6325,744.2037,331.674,749.89" style="stroke: #A80036; stroke-width: 1.0;"/><text fill="#000000" font-family="sans-serif" font-size="13" lengthAdjust="spacingAndGlyphs" textLength="18" x="234.081" y="677.9951">bot</text><!--link model.Game to model.map.GameMap--><path d="M511.237,572.128 C540.181,598.875 572.838,622.983 608.081,639 C637.662,652.444 726.088,630.501 754.081,647 C777.134,660.587 768.528,677.802 786.081,698 C801.599,715.856 821.538,733.0664 838.609,746.487 " fill="none" id="model.Game-model.map.GameMap" style="stroke: #A80036; stroke-width: 1.0;"/><polygon fill="#A80036" points="842.882,749.8154,838.2401,741.129,838.9375,746.7427,833.3238,747.4402,842.882,749.8154" style="stroke: #A80036; stroke-width: 1.0;"/><text fill="#000000" font-family="sans-serif" font-size="13" lengthAdjust="spacingAndGlyphs" textLength="57" x="787.081" y="677.9951">gameMap</text><!--link model.Game to model.player.UserPlayer--><path d="M248.733,453.767 C165.416,492.371 64.3468,555.225 15.0808,647 C4.3601,666.971 1.9824,679.501 15.0808,698 C51.4399,749.3497 125.923,765.7924 176.44,770.9138 " fill="none" id="model.Game-model.player.UserPlayer" style="stroke: #A80036; stroke-width: 1.0;"/><polygon fill="#A80036" points="181.558,771.4024,172.9794,766.5643,176.5807,770.9267,172.2183,774.528,181.558,771.4024" style="stroke: #A80036; stroke-width: 1.0;"/><text fill="#000000" font-family="sans-serif" font-size="13" lengthAdjust="spacingAndGlyphs" textLength="58" x="16.0808" y="677.9951">firstPlayer</text><!--link model.Game to model.player.UserPlayer--><path d="M249.072,501.091 C205.538,540.839 162.281,590.826 139.081,647 C130.428,667.95 129.523,677.447 139.081,698 C148.349,717.931 165.811,734.4656 182.829,746.8917 " fill="none" id="model.Game-model.player.UserPlayer-1" style="stroke: #A80036; stroke-width: 1.0;"/><polygon fill="#A80036" points="187.141,749.9619,182.1295,741.4834,183.0679,747.0619,177.4895,748.0003,187.141,749.9619" style="stroke: #A80036; stroke-width: 1.0;"/><text fill="#000000" font-family="sans-serif" font-size="13" lengthAdjust="spacingAndGlyphs" textLength="42" x="157.081" y="669.9951">players</text><text fill="#000000" font-family="sans-serif" font-size="13" lengthAdjust="spacingAndGlyphs" textLength="76" x="140.081" y="686.3467">deathPlayers</text><text fill="#000000" font-family="sans-serif" font-size="13" lengthAdjust="spacingAndGlyphs" textLength="5" x="171.0095" y="739.2923">*</text><!--link model.Game to model.cards.Deck--><path d="M511.204,573.209 C540.101,599.766 572.75,623.528 608.081,639 C638.117,652.153 873.62,632.605 903.081,647 C929.464,659.891 922.267,679.513 945.081,698 C978.549,725.121 1023.38,746.5892 1054.07,759.4884 " fill="none" id="model.Game-model.cards.Deck" style="stroke: #A80036; stroke-width: 1.0;"/><polygon fill="#A80036" points="1058.87,761.4847,1052.0884,754.3426,1054.2513,759.5696,1049.0243,761.7326,1058.87,761.4847" style="stroke: #A80036; stroke-width: 1.0;"/><text fill="#000000" font-family="sans-serif" font-size="13" lengthAdjust="spacingAndGlyphs" textLength="112" x="947.581" y="661.4951">powerupCardsDeck</text><text fill="#000000" font-family="sans-serif" font-size="13" lengthAdjust="spacingAndGlyphs" textLength="115" x="946.081" y="677.8467">weaponsCardsDeck</text><text fill="#000000" font-family="sans-serif" font-size="13" lengthAdjust="spacingAndGlyphs" textLength="86" x="960.581" y="694.1982">ammoTileDeck</text><!--link model.Game to model.player.KillShot--><path d="M349.682,615.034 C353.312,644.384 361.636,673.01 377.081,698 C381.261,704.763 386.867,701.041 393.081,706 C407.031,717.133 419.859,732.3293 429.611,745.4356 " fill="none" id="model.Game-model.player.KillShot" style="stroke: #A80036; stroke-width: 1.0;"/><polygon fill="#A80036" points="432.798,749.7913,430.7126,740.1658,429.8459,745.7558,424.2558,744.8891,432.798,749.7913" style="stroke: #A80036; stroke-width: 1.0;"/><text fill="#000000" font-family="sans-serif" font-size="13" lengthAdjust="spacingAndGlyphs" textLength="115" x="378.081" y="661.4951">finalFrenzyKillShots</text><text fill="#000000" font-family="sans-serif" font-size="13" lengthAdjust="spacingAndGlyphs" textLength="75" x="398.081" y="677.8467">killShotTrack</text><text fill="#000000" font-family="sans-serif" font-size="13" lengthAdjust="spacingAndGlyphs" textLength="82" x="394.581" y="694.1982">killShotsTrack</text><text fill="#000000" font-family="sans-serif" font-size="13" lengthAdjust="spacingAndGlyphs" textLength="5" x="423.2411" y="739.078">*</text><!--link java.io.Serializable to model.GameSerialized--><path d="M549.959,110.861 C569.941,120.699 590.79,133.388 607.081,149 C660.606,200.295 699.972,275.879 723.887,331.26 " fill="none" id="java.io.Serializable-model.GameSerialized" style="stroke: #A80036; stroke-width: 1.0; stroke-dasharray: 7.0,7.0;"/><polygon fill="none" points="546.894,117.157,531.627,102.463,552.725,104.429,546.894,117.157" style="stroke: #A80036; stroke-width: 1.0;"/><!--link model.GameSerialized to model.player.KillShot--><path d="M717.853,476.688 C679.029,558.991 617.497,684.465 597.081,698 C579.423,709.707 520.791,696.063 502.081,706 C485.46,714.827 472.122,731.1899 462.859,745.5349 " fill="none" id="model.GameSerialized-model.player.KillShot" style="stroke: #A80036; stroke-width: 1.0;"/><polygon fill="#A80036" points="460.116,749.9114,468.2845,744.409,462.771,745.6745,461.5055,740.161,460.116,749.9114" style="stroke: #A80036; stroke-width: 1.0;"/><text fill="#000000" font-family="sans-serif" font-size="13" lengthAdjust="spacingAndGlyphs" textLength="82" x="650.581" y="669.9951">killShotsTrack</text><text fill="#000000" font-family="sans-serif" font-size="13" lengthAdjust="spacingAndGlyphs" textLength="115" x="634.081" y="686.3467">finalFrenzyKillShots</text><text fill="#000000" font-family="sans-serif" font-size="13" lengthAdjust="spacingAndGlyphs" textLength="5" x="457.5593" y="739.2289">*</text><!--link model.GameSerialized to model.cards.PowerupCard--><path d="M876.908,459.122 C961.58,500.604 1071.04,564.685 1146.08,647 C1172.21,675.664 1189.81,717.366 1199.39,744.8283 " fill="none" id="model.GameSerialized-model.cards.PowerupCard" style="stroke: #A80036; stroke-width: 1.0;"/><polygon fill="#A80036" points="1201.08,749.7842,1201.9501,739.9738,1199.4609,745.0536,1194.3811,742.5644,1201.08,749.7842" style="stroke: #A80036; stroke-width: 1.0;"/><text fill="#000000" font-family="sans-serif" font-size="13" lengthAdjust="spacingAndGlyphs" textLength="82" x="1181.08" y="669.9951">powerupCards</text><text fill="#000000" font-family="sans-serif" font-size="13" lengthAdjust="spacingAndGlyphs" textLength="55" x="1194.58" y="686.3467">powerups</text><text fill="#000000" font-family="sans-serif" font-size="13" lengthAdjust="spacingAndGlyphs" textLength="5" x="1193.6456" y="739.0691">*</text><!--link model.GameSerialized to model.cards.PowerupCard--><path d="M876.809,424.2 C1001.336,450.633 1185.57,511.431 1272.08,647 C1292.96,679.724 1263.59,720.127 1238.1,746.218 " fill="none" id="model.GameSerialized-model.cards.PowerupCard-1" style="stroke: #A80036; stroke-width: 1.0;"/><polygon fill="#A80036" points="1234.37,749.961,1243.5547,746.4054,1237.8978,746.4178,1237.8855,740.7609,1234.37,749.961" style="stroke: #A80036; stroke-width: 1.0;"/><text fill="#000000" font-family="sans-serif" font-size="13" lengthAdjust="spacingAndGlyphs" textLength="104" x="1280.08" y="669.9951">spawningPowerup</text><text fill="#000000" font-family="sans-serif" font-size="13" lengthAdjust="spacingAndGlyphs" textLength="87" x="1288.58" y="686.3467">spawnPowerup</text><!--link model.GameSerialized to model.player.Player--><path d="M726.938,476.671 C704.715,530.788 666.138,601.864 607.081,639 C577.954,657.315 559.287,628.812 530.081,647 C507.366,661.146 520.988,684.168 498.081,698 C478.049,710.096 413.585,694.722 393.081,706 C377.061,714.811 364.7,731.1737 356.277,745.5225 " fill="none" id="model.GameSerialized-model.player.Player" style="stroke: #A80036; stroke-width: 1.0;"/><polygon fill="#A80036" points="353.789,749.9004,361.7132,744.0518,356.2593,745.5533,354.7578,740.0993,353.789,749.9004" style="stroke: #A80036; stroke-width: 1.0;"/><text fill="#000000" font-family="sans-serif" font-size="13" lengthAdjust="spacingAndGlyphs" textLength="57" x="531.081" y="677.9951">allPlayers</text><text fill="#000000" font-family="sans-serif" font-size="13" lengthAdjust="spacingAndGlyphs" textLength="5" x="350.8923" y="739.215">*</text><!--link model.GameSerialized to model.player.Bot--><path d="M811.5,476.554 C857.795,540.448 905.596,633.619 853.081,698 C841.897,711.711 831.336,702.083 814.081,706 C726.959,725.776 624.75,752.0994 575.138,765.0775 " fill="none" id="model.GameSerialized-model.player.Bot" style="stroke: #A80036; stroke-width: 1.0;"/><polygon fill="#A80036" points="570.216,766.3666,579.9359,767.9552,575.0528,765.0995,577.9085,760.2164,570.216,766.3666" style="stroke: #A80036; stroke-width: 1.0;"/><text fill="#000000" font-family="sans-serif" font-size="13" lengthAdjust="spacingAndGlyphs" textLength="18" x="876.081" y="677.9951">bot</text><!--link model.GameSerialized to model.player.UserPlayer--><path d="M728.258,476.54 C706.56,531.541 668.043,603.871 607.081,639 C577.9,655.815 333.186,630.055 304.081,647 C267.558,668.263 246.502,714.661 236.174,744.8303 " fill="none" id="model.GameSerialized-model.player.UserPlayer" style="stroke: #A80036; stroke-width: 1.0;"/><polygon fill="#A80036" points="234.488,749.8953,241.1252,742.6188,236.0668,745.1511,233.5345,740.0927,234.488,749.8953" style="stroke: #A80036; stroke-width: 1.0;"/><text fill="#000000" font-family="sans-serif" font-size="13" lengthAdjust="spacingAndGlyphs" textLength="42" x="305.081" y="677.9951">players</text><text fill="#000000" font-family="sans-serif" font-size="13" lengthAdjust="spacingAndGlyphs" textLength="5" x="230.4892" y="739.2086">*</text><!--link model.GameSerialized to model.map.GameMap--><path d="M876.819,463.875 C947.626,504.45 1029.73,565.749 1070.08,647 C1080.16,667.301 1083.64,679.838 1070.08,698 C1062.59,708.029 1054.91,701.9 1043.08,706 C1002.645,720.021 957.644,738.1038 924.402,751.9492 " fill="none" id="model.GameSerialized-model.map.GameMap" style="stroke: #A80036; stroke-width: 1.0;"/><polygon fill="#A80036" points="919.585,753.9602,929.4313,754.1852,924.1993,752.0344,926.3501,746.8024,919.585,753.9602" style="stroke: #A80036; stroke-width: 1.0;"/><text fill="#000000" font-family="sans-serif" font-size="13" lengthAdjust="spacingAndGlyphs" textLength="57" x="1080.08" y="677.9951">gameMap</text><text fill="#888888" font-family="sans-serif" font-size="10" lengthAdjust="spacingAndGlyphs" textLength="184" x="609.5" y="850.3809">UMLDoclet 2.0.4, PlantUML 1.2019.06</text><!--
@startuml
    namespace model {

        class Game [[Game.html]] {
            {static} +rand: Random
            +init(): void
            +loadGame(Game, List<NotTransientPlayer>): void
            +getTrackerPoints(): Integer[]
            +getState(): GameState
            +setState(GameState): void
            +setGameMap(int): void
            +setKillShotNum(int): void
            +addPlayer(UserPlayer): void
            +playersNumber(): int
            +isGameReadyToStart(): boolean
            +startGame(): void
            +initializeDecks(): void
            +stopGame(): void
            +remainingSkulls(): int
            +addKillShot(KillShot): void
            +isBotPresent(): boolean
            +setBot(boolean): void
            +buildTerminator(): void
            +spawnPlayer(UserPlayer, PlayerPosition): void
            +spawnTerminator(PlayerPosition): void
            +isGameStarted(): boolean
            ~getKillShotNum(): int
            +getUserPlayerByUsername(String): Player
            +doesPlayerExists(String): boolean
            +getPlayersDamage(): List<Integer>
            +getPlayerByName(String): Player
        }

        class GameSerialized [[GameSerialized.html]] {
            +GameSerialized(String)
            +isBotPresent(): boolean
            +isBotActionDone(): boolean
            +getKillShotNum(): int
            +getPoints(): int
            +getPlayerWeapons(String): List<WeaponCard>
            +getCurrentState(): GameState
        }

        java.io.Serializable <|.. Game
        Game - -> Game: instance
        Game - -> model.player.Player: bot
        Game - -> model.map.GameMap: gameMap
        Game - -> model.player.UserPlayer: firstPlayer
        Game - -> "*" model.player.UserPlayer: players\ndeathPlayers
        Game - -> model.cards.Deck: powerupCardsDeck\nweaponsCardsDeck\nammoTileDeck
        Game - -> "*" model.player.KillShot: finalFrenzyKillShots\nkillShotTrack\nkillShotsTrack
        java.io.Serializable <|.. GameSerialized
        GameSerialized - -> "*" model.player.KillShot: killShotsTrack\nfinalFrenzyKillShots
        GameSerialized - -> "*" model.cards.PowerupCard: powerupCards\npowerups
        GameSerialized - -> model.cards.PowerupCard: spawningPowerup\nspawnPowerup
        GameSerialized - -> "*" model.player.Player: allPlayers
        GameSerialized - -> model.player.Bot: bot
        GameSerialized - -> "*" model.player.UserPlayer: players
        GameSerialized - -> model.map.GameMap: gameMap
    }

    namespace java.io {
        interface Serializable
    }

    center footer UMLDoclet 2.0.4, PlantUML 1.2019.06
@enduml

PlantUML version 1.2019.06(Fri May 24 19:10:25 CEST 2019)
(APACHE source distribution)
Java Runtime: Java(TM) SE Runtime Environment
JVM: Java HotSpot(TM) 64-Bit Server VM
Java Version: 11.0.2+9-LTS
Operating System: Windows 10
OS Version: 10.0
Default Encoding: Cp1252
Language: it
Country: IT
--></g></svg>