<svg xmlns="http://www.w3.org/2000/svg" xmlns:xlink="http://www.w3.org/1999/xlink" contentScriptType="application/ecmascript" contentStyleType="text/css" height="738px" preserveAspectRatio="none" style="width:1374px;height:738px;" version="1.1" viewBox="0 0 1374 738" width="1374px" zoomAndPan="magnify"><defs><filter height="300%" id="f7ac34214rh1o" width="300%" x="-1" y="-1"><feGaussianBlur result="blurOut" stdDeviation="2.0"/><feColorMatrix in="blurOut" result="blurOut2" type="matrix" values="0 0 0 0 0 0 0 0 0 0 0 0 0 0 0 0 0 0 .4 0"/><feOffset dx="4.0" dy="4.0" in="blurOut2" result="blurOut3"/><feBlend in="SourceGraphic" in2="blurOut3" mode="normal"/></filter></defs><g><!--cluster network.server--><polygon fill="#FFFFFF" filter="url(#f7ac34214rh1o)" points="232,273,346,273,353,296.6094,1322,296.6094,1322,689,232,689,232,273" style="stroke: #000000; stroke-width: 1.5;"/><line style="stroke: #000000; stroke-width: 1.5;" x1="232" x2="353" y1="296.6094" y2="296.6094"/><text fill="#000000" font-family="sans-serif" font-size="14" font-weight="bold" lengthAdjust="spacingAndGlyphs" textLength="108" x="236" y="289.5332">network.server</text><!--cluster java.rmi--><polygon fill="#FFFFFF" filter="url(#f7ac34214rh1o)" points="306,86.5,367,86.5,374,110.1094,414,110.1094,414,186.5,306,186.5,306,86.5" style="stroke: #000000; stroke-width: 1.5;"/><line style="stroke: #000000; stroke-width: 1.5;" x1="306" x2="374" y1="110.1094" y2="110.1094"/><text fill="#000000" font-family="sans-serif" font-size="14" font-weight="bold" lengthAdjust="spacingAndGlyphs" textLength="55" x="310" y="103.0332">java.rmi</text><!--cluster java.rmi.server--><polygon fill="#FFFFFF" filter="url(#f7ac34214rh1o)" points="22,335.5,134,335.5,141,359.1094,208,359.1094,208,435.5,22,435.5,22,335.5" style="stroke: #000000; stroke-width: 1.5;"/><line style="stroke: #000000; stroke-width: 1.5;" x1="22" x2="141" y1="359.1094" y2="359.1094"/><text fill="#000000" font-family="sans-serif" font-size="14" font-weight="bold" lengthAdjust="spacingAndGlyphs" textLength="106" x="26" y="352.0332">java.rmi.server</text><!--cluster java.lang--><polygon fill="#FFFFFF" filter="url(#f7ac34214rh1o)" points="877,24,946,24,953,47.6094,1259,47.6094,1259,249,877,249,877,24" style="stroke: #000000; stroke-width: 1.5;"/><line style="stroke: #000000; stroke-width: 1.5;" x1="877" x2="953" y1="47.6094" y2="47.6094"/><text fill="#000000" font-family="sans-serif" font-size="14" font-weight="bold" lengthAdjust="spacingAndGlyphs" textLength="63" x="881" y="40.5332">java.lang</text><!--class network.server.Connection--><a href="Connection.html" target="_top" xlink:actuate="onRequest" xlink:show="new" xlink:title="Connection.html" xlink:type="simple"><rect fill="#FEFECE" filter="url(#f7ac34214rh1o)" height="131.0156" id="network.server.Connection" style="stroke: #A80036; stroke-width: 1.5;" width="174" x="1132" y="330"/><ellipse cx="1183.25" cy="346" fill="#A9DCDF" rx="11" ry="11" style="stroke: #A80036; stroke-width: 1.0;"/><path d="M1185.4375,347.7656 L1181.2969,347.7656 L1180.875,348.7969 L1181.2969,348.7969 Q1181.9063,348.7969 1182.1719,349.0313 Q1182.4375,349.2656 1182.4375,349.6563 Q1182.4375,350.0313 1182.1719,350.2656 Q1181.9063,350.5 1181.2969,350.5 L1179,350.5 Q1178.3906,350.5 1178.1406,350.2656 Q1177.875,350.0313 1177.875,349.6406 Q1177.875,349.2656 1178.1563,349.0313 Q1178.4219,348.7813 1179.0469,348.7969 L1181.7188,342.1406 L1180.6094,342.1406 Q1180,342.1406 1179.7344,341.9063 Q1179.4688,341.6719 1179.4688,341.2813 Q1179.4688,340.9063 1179.7344,340.6719 Q1180,340.4375 1180.6094,340.4375 L1184.2813,340.4375 L1187.6719,348.7969 Q1188.2656,348.7969 1188.4531,348.9375 Q1188.8438,349.2031 1188.8438,349.6563 Q1188.8438,350.0313 1188.5781,350.2656 Q1188.3281,350.5 1187.7188,350.5 L1185.4219,350.5 Q1184.8125,350.5 1184.5469,350.2656 Q1184.2813,350.0313 1184.2813,349.6406 Q1184.2813,349.2656 1184.5469,349.0313 Q1184.8125,348.7969 1185.4219,348.7969 L1185.8438,348.7969 L1185.4375,347.7656 Z M1184.7188,346.0625 L1183.3594,342.6875 L1181.9844,346.0625 L1184.7188,346.0625 Z "/><text fill="#000000" font-family="sans-serif" font-size="12" font-style="italic" lengthAdjust="spacingAndGlyphs" textLength="63" x="1203.75" y="350.9102">Connection</text><line style="stroke: #A80036; stroke-width: 1.5;" x1="1133" x2="1305" y1="362" y2="362"/><line style="stroke: #A80036; stroke-width: 1.5;" x1="1133" x2="1305" y1="370" y2="370"/><ellipse cx="1143" cy="382.418" fill="#84BE84" rx="3" ry="3" style="stroke: #038048; stroke-width: 1.0;"/><text fill="#000000" font-family="sans-serif" font-size="11" lengthAdjust="spacingAndGlyphs" textLength="112" x="1152" y="385.4189">isConnected(): boolean</text><ellipse cx="1143" cy="396.2539" fill="#84BE84" rx="3" ry="3" style="stroke: #038048; stroke-width: 1.0;"/><text fill="#000000" font-family="sans-serif" font-size="11" font-style="italic" lengthAdjust="spacingAndGlyphs" textLength="148" x="1152" y="399.2549">sendMessage(Message): void</text><ellipse cx="1143" cy="410.0898" fill="#84BE84" rx="3" ry="3" style="stroke: #038048; stroke-width: 1.0;"/><text fill="#000000" font-family="sans-serif" font-size="11" font-style="italic" lengthAdjust="spacingAndGlyphs" textLength="88" x="1152" y="413.0908">disconnect(): void</text><ellipse cx="1143" cy="423.9258" fill="#84BE84" rx="3" ry="3" style="stroke: #038048; stroke-width: 1.0;"/><text fill="#000000" font-family="sans-serif" font-size="11" font-style="italic" lengthAdjust="spacingAndGlyphs" textLength="55" x="1152" y="426.9268">ping(): void</text><ellipse cx="1143" cy="437.7617" fill="#84BE84" rx="3" ry="3" style="stroke: #038048; stroke-width: 1.0;"/><text fill="#000000" font-family="sans-serif" font-size="11" lengthAdjust="spacingAndGlyphs" textLength="86" x="1152" y="440.7627">getToken(): String</text><ellipse cx="1143" cy="451.5977" fill="#84BE84" rx="3" ry="3" style="stroke: #038048; stroke-width: 1.0;"/><text fill="#000000" font-family="sans-serif" font-size="11" lengthAdjust="spacingAndGlyphs" textLength="106" x="1152" y="454.5986">setToken(String): void</text></a><!--class network.server.RMIConnection--><a href="RMIConnection.html" target="_top" xlink:actuate="onRequest" xlink:show="new" xlink:title="RMIConnection.html" xlink:type="simple"><rect fill="#FEFECE" filter="url(#f7ac34214rh1o)" height="117.1797" id="network.server.RMIConnection" style="stroke: #A80036; stroke-width: 1.5;" width="241" x="803.5" y="549"/><ellipse cx="877.75" cy="565" fill="#ADD1B2" rx="11" ry="11" style="stroke: #A80036; stroke-width: 1.0;"/><path d="M880.5156,560.875 Q880.6719,560.6563 880.8594,560.5469 Q881.0469,560.4375 881.2656,560.4375 Q881.6406,560.4375 881.875,560.7031 Q882.1094,560.9531 882.1094,561.5625 L882.1094,563.0156 Q882.1094,563.625 881.875,563.8906 Q881.6406,564.1563 881.2656,564.1563 Q880.9219,564.1563 880.7188,563.9531 Q880.5156,563.7656 880.4063,563.25 Q880.3594,562.8906 880.1719,562.7031 Q879.8438,562.3281 879.2344,562.1094 Q878.625,561.8906 878,561.8906 Q877.2344,561.8906 876.5938,562.2188 Q875.9688,562.5469 875.4688,563.2969 Q874.9844,564.0469 874.9844,565.0781 L874.9844,566.1719 Q874.9844,567.4063 875.875,568.2344 Q876.7656,569.0469 878.3594,569.0469 Q879.2969,569.0469 879.9531,568.7969 Q880.3438,568.6406 880.7656,568.2031 Q881.0313,567.9375 881.1719,567.8594 Q881.3281,567.7813 881.5313,567.7813 Q881.8594,567.7813 882.1094,568.0469 Q882.375,568.2969 882.375,568.6406 Q882.375,568.9844 882.0313,569.3906 Q881.5313,569.9688 880.7344,570.2969 Q879.6563,570.75 878.3594,570.75 Q876.8438,570.75 875.6406,570.125 Q874.6563,569.625 873.9688,568.5625 Q873.2813,567.4844 873.2813,566.2031 L873.2813,565.0469 Q873.2813,563.7188 873.8906,562.5781 Q874.5156,561.4219 875.6094,560.8125 Q876.7031,560.1875 877.9375,560.1875 Q878.6719,560.1875 879.3125,560.3594 Q879.9688,560.5156 880.5156,560.875 Z "/><text fill="#000000" font-family="sans-serif" font-size="12" lengthAdjust="spacingAndGlyphs" textLength="84" x="898.25" y="569.9102">RMIConnection</text><line style="stroke: #A80036; stroke-width: 1.5;" x1="804.5" x2="1043.5" y1="581" y2="581"/><line style="stroke: #A80036; stroke-width: 1.5;" x1="804.5" x2="1043.5" y1="589" y2="589"/><polygon fill="#4177AF" points="814.5,597.418,810.5,603.418,818.5,603.418" style="stroke: #1963A0; stroke-width: 1.0;"/><text fill="#000000" font-family="sans-serif" font-size="11" lengthAdjust="spacingAndGlyphs" textLength="215" x="823.5" y="604.4189">RMIConnection(Server, RMIClientConnection)</text><ellipse cx="814.5" cy="615.2539" fill="#84BE84" rx="3" ry="3" style="stroke: #038048; stroke-width: 1.0;"/><text fill="#000000" font-family="sans-serif" font-size="11" lengthAdjust="spacingAndGlyphs" textLength="112" x="823.5" y="618.2549">isConnected(): boolean</text><ellipse cx="814.5" cy="629.0898" fill="#84BE84" rx="3" ry="3" style="stroke: #038048; stroke-width: 1.0;"/><text fill="#000000" font-family="sans-serif" font-size="11" lengthAdjust="spacingAndGlyphs" textLength="146" x="823.5" y="632.0908">sendMessage(Message): void</text><ellipse cx="814.5" cy="642.9258" fill="#84BE84" rx="3" ry="3" style="stroke: #038048; stroke-width: 1.0;"/><text fill="#000000" font-family="sans-serif" font-size="11" lengthAdjust="spacingAndGlyphs" textLength="87" x="823.5" y="645.9268">disconnect(): void</text><ellipse cx="814.5" cy="656.7617" fill="#84BE84" rx="3" ry="3" style="stroke: #038048; stroke-width: 1.0;"/><text fill="#000000" font-family="sans-serif" font-size="11" lengthAdjust="spacingAndGlyphs" textLength="54" x="823.5" y="659.7627">ping(): void</text></a><!--class network.server.RMIHandler--><a href="RMIHandler.html" target="_top" xlink:actuate="onRequest" xlink:show="new" xlink:title="RMIHandler.html" xlink:type="simple"><rect fill="#FEFECE" filter="url(#f7ac34214rh1o)" height="89.5078" id="network.server.RMIHandler" style="stroke: #A80036; stroke-width: 1.5;" width="224" x="248" y="350.5"/><ellipse cx="322.75" cy="366.5" fill="#B4A7E5" rx="11" ry="11" style="stroke: #A80036; stroke-width: 1.0;"/><path d="M323.7031,363.1406 L323.7031,369.7969 L325.4219,369.7969 Q326.0313,369.7969 326.2969,370.0313 Q326.5625,370.2656 326.5625,370.6563 Q326.5625,371.0313 326.2969,371.2656 Q326.0313,371.5 325.4219,371.5 L320.2813,371.5 Q319.6719,371.5 319.4063,371.2656 Q319.1406,371.0313 319.1406,370.6406 Q319.1406,370.2656 319.4063,370.0313 Q319.6719,369.7969 320.2813,369.7969 L322,369.7969 L322,363.1406 L320.2813,363.1406 Q319.6719,363.1406 319.4063,362.9063 Q319.1406,362.6719 319.1406,362.2813 Q319.1406,361.9063 319.4063,361.6719 Q319.6719,361.4375 320.2813,361.4375 L325.4219,361.4375 Q326.0313,361.4375 326.2969,361.6719 Q326.5625,361.9063 326.5625,362.2813 Q326.5625,362.6719 326.2969,362.9063 Q326.0313,363.1406 325.4219,363.1406 L323.7031,363.1406 Z "/><text fill="#000000" font-family="sans-serif" font-size="12" font-style="italic" lengthAdjust="spacingAndGlyphs" textLength="66" x="343.25" y="371.4102">RMIHandler</text><line style="stroke: #A80036; stroke-width: 1.5;" x1="249" x2="471" y1="382.5" y2="382.5"/><line style="stroke: #A80036; stroke-width: 1.5;" x1="249" x2="471" y1="390.5" y2="390.5"/><ellipse cx="259" cy="402.918" fill="#84BE84" rx="3" ry="3" style="stroke: #038048; stroke-width: 1.0;"/><text fill="#000000" font-family="sans-serif" font-size="11" font-style="italic" lengthAdjust="spacingAndGlyphs" textLength="198" x="268" y="405.9189">login(String, RMIClientConnection): void</text><ellipse cx="259" cy="416.7539" fill="#84BE84" rx="3" ry="3" style="stroke: #038048; stroke-width: 1.0;"/><text fill="#000000" font-family="sans-serif" font-size="11" font-style="italic" lengthAdjust="spacingAndGlyphs" textLength="136" x="268" y="419.7549">onMessage(Message): void</text><ellipse cx="259" cy="430.5898" fill="#84BE84" rx="3" ry="3" style="stroke: #038048; stroke-width: 1.0;"/><text fill="#000000" font-family="sans-serif" font-size="11" font-style="italic" lengthAdjust="spacingAndGlyphs" textLength="103" x="268" y="433.5908">disconnectMe(): void</text></a><!--class network.server.RMIHandlerImplementation--><a href="RMIHandlerImplementation.html" target="_top" xlink:actuate="onRequest" xlink:show="new" xlink:title="RMIHandlerImplementation.html" xlink:type="simple"><rect fill="#FEFECE" filter="url(#f7ac34214rh1o)" height="103.3438" id="network.server.RMIHandlerImplementation" style="stroke: #A80036; stroke-width: 1.5;" width="213" x="251.5" y="556"/><ellipse cx="280" cy="572" fill="#ADD1B2" rx="11" ry="11" style="stroke: #A80036; stroke-width: 1.0;"/><path d="M282.7656,567.875 Q282.9219,567.6563 283.1094,567.5469 Q283.2969,567.4375 283.5156,567.4375 Q283.8906,567.4375 284.125,567.7031 Q284.3594,567.9531 284.3594,568.5625 L284.3594,570.0156 Q284.3594,570.625 284.125,570.8906 Q283.8906,571.1563 283.5156,571.1563 Q283.1719,571.1563 282.9688,570.9531 Q282.7656,570.7656 282.6563,570.25 Q282.6094,569.8906 282.4219,569.7031 Q282.0938,569.3281 281.4844,569.1094 Q280.875,568.8906 280.25,568.8906 Q279.4844,568.8906 278.8438,569.2188 Q278.2188,569.5469 277.7188,570.2969 Q277.2344,571.0469 277.2344,572.0781 L277.2344,573.1719 Q277.2344,574.4063 278.125,575.2344 Q279.0156,576.0469 280.6094,576.0469 Q281.5469,576.0469 282.2031,575.7969 Q282.5938,575.6406 283.0156,575.2031 Q283.2813,574.9375 283.4219,574.8594 Q283.5781,574.7813 283.7813,574.7813 Q284.1094,574.7813 284.3594,575.0469 Q284.625,575.2969 284.625,575.6406 Q284.625,575.9844 284.2813,576.3906 Q283.7813,576.9688 282.9844,577.2969 Q281.9063,577.75 280.6094,577.75 Q279.0938,577.75 277.8906,577.125 Q276.9063,576.625 276.2188,575.5625 Q275.5313,574.4844 275.5313,573.2031 L275.5313,572.0469 Q275.5313,570.7188 276.1406,569.5781 Q276.7656,568.4219 277.8594,567.8125 Q278.9531,567.1875 280.1875,567.1875 Q280.9219,567.1875 281.5625,567.3594 Q282.2188,567.5156 282.7656,567.875 Z "/><text fill="#000000" font-family="sans-serif" font-size="12" lengthAdjust="spacingAndGlyphs" textLength="151" x="297" y="576.9102">RMIHandlerImplementation</text><line style="stroke: #A80036; stroke-width: 1.5;" x1="252.5" x2="463.5" y1="588" y2="588"/><line style="stroke: #A80036; stroke-width: 1.5;" x1="252.5" x2="463.5" y1="596" y2="596"/><polygon fill="#4177AF" points="262.5,604.418,258.5,610.418,266.5,610.418" style="stroke: #1963A0; stroke-width: 1.0;"/><text fill="#000000" font-family="sans-serif" font-size="11" lengthAdjust="spacingAndGlyphs" textLength="165" x="271.5" y="611.4189">RMIHandlerImplementation(Server)</text><ellipse cx="262.5" cy="622.2539" fill="#84BE84" rx="3" ry="3" style="stroke: #038048; stroke-width: 1.0;"/><text fill="#000000" font-family="sans-serif" font-size="11" lengthAdjust="spacingAndGlyphs" textLength="187" x="271.5" y="625.2549">login(String, RMIClientConnection): void</text><ellipse cx="262.5" cy="636.0898" fill="#84BE84" rx="3" ry="3" style="stroke: #038048; stroke-width: 1.0;"/><text fill="#000000" font-family="sans-serif" font-size="11" lengthAdjust="spacingAndGlyphs" textLength="134" x="271.5" y="639.0908">onMessage(Message): void</text><ellipse cx="262.5" cy="649.9258" fill="#84BE84" rx="3" ry="3" style="stroke: #038048; stroke-width: 1.0;"/><text fill="#000000" font-family="sans-serif" font-size="11" lengthAdjust="spacingAndGlyphs" textLength="101" x="271.5" y="652.9268">disconnectMe(): void</text></a><!--class network.server.RMIServer--><a href="RMIServer.html" target="_top" xlink:actuate="onRequest" xlink:show="new" xlink:title="RMIServer.html" xlink:type="simple"><rect fill="#FEFECE" filter="url(#f7ac34214rh1o)" height="75.6719" id="network.server.RMIServer" style="stroke: #A80036; stroke-width: 1.5;" width="134" x="748" y="357.5"/><ellipse cx="783.7" cy="373.5" fill="#ADD1B2" rx="11" ry="11" style="stroke: #A80036; stroke-width: 1.0;"/><path d="M786.4656,369.375 Q786.6219,369.1563 786.8094,369.0469 Q786.9969,368.9375 787.2156,368.9375 Q787.5906,368.9375 787.825,369.2031 Q788.0594,369.4531 788.0594,370.0625 L788.0594,371.5156 Q788.0594,372.125 787.825,372.3906 Q787.5906,372.6563 787.2156,372.6563 Q786.8719,372.6563 786.6688,372.4531 Q786.4656,372.2656 786.3563,371.75 Q786.3094,371.3906 786.1219,371.2031 Q785.7938,370.8281 785.1844,370.6094 Q784.575,370.3906 783.95,370.3906 Q783.1844,370.3906 782.5438,370.7188 Q781.9188,371.0469 781.4188,371.7969 Q780.9344,372.5469 780.9344,373.5781 L780.9344,374.6719 Q780.9344,375.9063 781.825,376.7344 Q782.7156,377.5469 784.3094,377.5469 Q785.2469,377.5469 785.9031,377.2969 Q786.2938,377.1406 786.7156,376.7031 Q786.9813,376.4375 787.1219,376.3594 Q787.2781,376.2813 787.4813,376.2813 Q787.8094,376.2813 788.0594,376.5469 Q788.325,376.7969 788.325,377.1406 Q788.325,377.4844 787.9813,377.8906 Q787.4813,378.4688 786.6844,378.7969 Q785.6063,379.25 784.3094,379.25 Q782.7938,379.25 781.5906,378.625 Q780.6063,378.125 779.9188,377.0625 Q779.2313,375.9844 779.2313,374.7031 L779.2313,373.5469 Q779.2313,372.2188 779.8406,371.0781 Q780.4656,369.9219 781.5594,369.3125 Q782.6531,368.6875 783.8875,368.6875 Q784.6219,368.6875 785.2625,368.8594 Q785.9188,369.0156 786.4656,369.375 Z "/><text fill="#000000" font-family="sans-serif" font-size="12" lengthAdjust="spacingAndGlyphs" textLength="56" x="802.3" y="378.4102">RMIServer</text><line style="stroke: #A80036; stroke-width: 1.5;" x1="749" x2="881" y1="389.5" y2="389.5"/><line style="stroke: #A80036; stroke-width: 1.5;" x1="749" x2="881" y1="397.5" y2="397.5"/><polygon fill="#4177AF" points="759,405.918,755,411.918,763,411.918" style="stroke: #1963A0; stroke-width: 1.0;"/><text fill="#000000" font-family="sans-serif" font-size="11" lengthAdjust="spacingAndGlyphs" textLength="108" x="768" y="412.9189">RMIServer(Server, int)</text><polygon fill="#4177AF" points="759,419.7539,755,425.7539,763,425.7539" style="stroke: #1963A0; stroke-width: 1.0;"/><text fill="#000000" font-family="sans-serif" font-size="11" lengthAdjust="spacingAndGlyphs" textLength="89" x="768" y="426.7549">startServer(): void</text></a><!--class network.server.Server--><a href="Server.html" target="_top" xlink:actuate="onRequest" xlink:show="new" xlink:title="Server.html" xlink:type="simple"><rect fill="#FEFECE" filter="url(#f7ac34214rh1o)" height="172.5234" id="network.server.Server" style="stroke: #A80036; stroke-width: 1.5;" width="206" x="507" y="309"/><ellipse cx="588.25" cy="325" fill="#ADD1B2" rx="11" ry="11" style="stroke: #A80036; stroke-width: 1.0;"/><path d="M591.0156,320.875 Q591.1719,320.6563 591.3594,320.5469 Q591.5469,320.4375 591.7656,320.4375 Q592.1406,320.4375 592.375,320.7031 Q592.6094,320.9531 592.6094,321.5625 L592.6094,323.0156 Q592.6094,323.625 592.375,323.8906 Q592.1406,324.1563 591.7656,324.1563 Q591.4219,324.1563 591.2188,323.9531 Q591.0156,323.7656 590.9063,323.25 Q590.8594,322.8906 590.6719,322.7031 Q590.3438,322.3281 589.7344,322.1094 Q589.125,321.8906 588.5,321.8906 Q587.7344,321.8906 587.0938,322.2188 Q586.4688,322.5469 585.9688,323.2969 Q585.4844,324.0469 585.4844,325.0781 L585.4844,326.1719 Q585.4844,327.4063 586.375,328.2344 Q587.2656,329.0469 588.8594,329.0469 Q589.7969,329.0469 590.4531,328.7969 Q590.8438,328.6406 591.2656,328.2031 Q591.5313,327.9375 591.6719,327.8594 Q591.8281,327.7813 592.0313,327.7813 Q592.3594,327.7813 592.6094,328.0469 Q592.875,328.2969 592.875,328.6406 Q592.875,328.9844 592.5313,329.3906 Q592.0313,329.9688 591.2344,330.2969 Q590.1563,330.75 588.8594,330.75 Q587.3438,330.75 586.1406,330.125 Q585.1563,329.625 584.4688,328.5625 Q583.7813,327.4844 583.7813,326.2031 L583.7813,325.0469 Q583.7813,323.7188 584.3906,322.5781 Q585.0156,321.4219 586.1094,320.8125 Q587.2031,320.1875 588.4375,320.1875 Q589.1719,320.1875 589.8125,320.3594 Q590.4688,320.5156 591.0156,320.875 Z "/><text fill="#000000" font-family="sans-serif" font-size="12" lengthAdjust="spacingAndGlyphs" textLength="35" x="608.75" y="329.9102">Server</text><line style="stroke: #A80036; stroke-width: 1.5;" x1="508" x2="712" y1="341" y2="341"/><ellipse cx="518" cy="353.418" fill="none" rx="3" ry="3" style="stroke: #038048; stroke-width: 1.0;"/><text fill="#000000" font-family="sans-serif" font-size="11" lengthAdjust="spacingAndGlyphs" text-decoration="underline" textLength="83" x="527" y="356.4189">LOGGER: Logger</text><line style="stroke: #A80036; stroke-width: 1.5;" x1="508" x2="712" y1="362.8359" y2="362.8359"/><ellipse cx="518" cy="375.2539" fill="#84BE84" rx="3" ry="3" style="stroke: #038048; stroke-width: 1.0;"/><text fill="#000000" font-family="sans-serif" font-size="11" lengthAdjust="spacingAndGlyphs" textLength="130" x="527" y="378.2549">Server(boolean, int, String)</text><ellipse cx="518" cy="389.0898" fill="#84BE84" rx="3" ry="3" style="stroke: #038048; stroke-width: 1.0;"/><text fill="#000000" font-family="sans-serif" font-size="11" lengthAdjust="spacingAndGlyphs" text-decoration="underline" textLength="90" x="527" y="392.0908">main(String[]): void</text><polygon fill="#4177AF" points="518,398.9258,514,404.9258,522,404.9258" style="stroke: #1963A0; stroke-width: 1.0;"/><text fill="#000000" font-family="sans-serif" font-size="11" lengthAdjust="spacingAndGlyphs" textLength="144" x="527" y="405.9268">login(String, Connection): void</text><polygon fill="#4177AF" points="518,412.7617,514,418.7617,522,418.7617" style="stroke: #1963A0; stroke-width: 1.0;"/><text fill="#000000" font-family="sans-serif" font-size="11" lengthAdjust="spacingAndGlyphs" textLength="134" x="527" y="419.7627">onMessage(Message): void</text><polygon fill="#4177AF" points="518,426.5977,514,432.5977,522,432.5977" style="stroke: #1963A0; stroke-width: 1.0;"/><text fill="#000000" font-family="sans-serif" font-size="11" lengthAdjust="spacingAndGlyphs" textLength="154" x="527" y="433.5986">onDisconnect(Connection): void</text><ellipse cx="518" cy="444.4336" fill="#84BE84" rx="3" ry="3" style="stroke: #038048; stroke-width: 1.0;"/><text fill="#000000" font-family="sans-serif" font-size="11" lengthAdjust="spacingAndGlyphs" textLength="170" x="527" y="447.4346">sendMessageToAll(Message): void</text><ellipse cx="518" cy="458.2695" fill="#84BE84" rx="3" ry="3" style="stroke: #038048; stroke-width: 1.0;"/><text fill="#000000" font-family="sans-serif" font-size="11" lengthAdjust="spacingAndGlyphs" textLength="180" x="527" y="461.2705">sendMessage(String, Message): void</text><ellipse cx="518" cy="472.1055" fill="#84BE84" rx="3" ry="3" style="stroke: #038048; stroke-width: 1.0;"/><text fill="#000000" font-family="sans-serif" font-size="11" lengthAdjust="spacingAndGlyphs" textLength="50" x="527" y="475.1064">run(): void</text></a><!--class network.server.SocketConnection--><a href="SocketConnection.html" target="_top" xlink:actuate="onRequest" xlink:show="new" xlink:title="SocketConnection.html" xlink:type="simple"><rect fill="#FEFECE" filter="url(#f7ac34214rh1o)" height="131.0156" id="network.server.SocketConnection" style="stroke: #A80036; stroke-width: 1.5;" width="226" x="1080" y="542"/><ellipse cx="1138.75" cy="558" fill="#ADD1B2" rx="11" ry="11" style="stroke: #A80036; stroke-width: 1.0;"/><path d="M1141.5156,553.875 Q1141.6719,553.6563 1141.8594,553.5469 Q1142.0469,553.4375 1142.2656,553.4375 Q1142.6406,553.4375 1142.875,553.7031 Q1143.1094,553.9531 1143.1094,554.5625 L1143.1094,556.0156 Q1143.1094,556.625 1142.875,556.8906 Q1142.6406,557.1563 1142.2656,557.1563 Q1141.9219,557.1563 1141.7188,556.9531 Q1141.5156,556.7656 1141.4063,556.25 Q1141.3594,555.8906 1141.1719,555.7031 Q1140.8438,555.3281 1140.2344,555.1094 Q1139.625,554.8906 1139,554.8906 Q1138.2344,554.8906 1137.5938,555.2188 Q1136.9688,555.5469 1136.4688,556.2969 Q1135.9844,557.0469 1135.9844,558.0781 L1135.9844,559.1719 Q1135.9844,560.4063 1136.875,561.2344 Q1137.7656,562.0469 1139.3594,562.0469 Q1140.2969,562.0469 1140.9531,561.7969 Q1141.3438,561.6406 1141.7656,561.2031 Q1142.0313,560.9375 1142.1719,560.8594 Q1142.3281,560.7813 1142.5313,560.7813 Q1142.8594,560.7813 1143.1094,561.0469 Q1143.375,561.2969 1143.375,561.6406 Q1143.375,561.9844 1143.0313,562.3906 Q1142.5313,562.9688 1141.7344,563.2969 Q1140.6563,563.75 1139.3594,563.75 Q1137.8438,563.75 1136.6406,563.125 Q1135.6563,562.625 1134.9688,561.5625 Q1134.2813,560.4844 1134.2813,559.2031 L1134.2813,558.0469 Q1134.2813,556.7188 1134.8906,555.5781 Q1135.5156,554.4219 1136.6094,553.8125 Q1137.7031,553.1875 1138.9375,553.1875 Q1139.6719,553.1875 1140.3125,553.3594 Q1140.9688,553.5156 1141.5156,553.875 Z "/><text fill="#000000" font-family="sans-serif" font-size="12" lengthAdjust="spacingAndGlyphs" textLength="100" x="1159.25" y="562.9102">SocketConnection</text><line style="stroke: #A80036; stroke-width: 1.5;" x1="1081" x2="1305" y1="574" y2="574"/><line style="stroke: #A80036; stroke-width: 1.5;" x1="1081" x2="1305" y1="582" y2="582"/><polygon fill="#4177AF" points="1091,590.418,1087,596.418,1095,596.418" style="stroke: #1963A0; stroke-width: 1.0;"/><text fill="#000000" font-family="sans-serif" font-size="11" lengthAdjust="spacingAndGlyphs" textLength="200" x="1100" y="597.4189">SocketConnection(SocketServer, Socket)</text><ellipse cx="1091" cy="608.2539" fill="#84BE84" rx="3" ry="3" style="stroke: #038048; stroke-width: 1.0;"/><text fill="#000000" font-family="sans-serif" font-size="11" lengthAdjust="spacingAndGlyphs" textLength="50" x="1100" y="611.2549">run(): void</text><ellipse cx="1091" cy="622.0898" fill="#84BE84" rx="3" ry="3" style="stroke: #038048; stroke-width: 1.0;"/><text fill="#000000" font-family="sans-serif" font-size="11" lengthAdjust="spacingAndGlyphs" textLength="112" x="1100" y="625.0908">isConnected(): boolean</text><ellipse cx="1091" cy="635.9258" fill="#84BE84" rx="3" ry="3" style="stroke: #038048; stroke-width: 1.0;"/><text fill="#000000" font-family="sans-serif" font-size="11" lengthAdjust="spacingAndGlyphs" textLength="146" x="1100" y="638.9268">sendMessage(Message): void</text><ellipse cx="1091" cy="649.7617" fill="#84BE84" rx="3" ry="3" style="stroke: #038048; stroke-width: 1.0;"/><text fill="#000000" font-family="sans-serif" font-size="11" lengthAdjust="spacingAndGlyphs" textLength="87" x="1100" y="652.7627">disconnect(): void</text><ellipse cx="1091" cy="663.5977" fill="#84BE84" rx="3" ry="3" style="stroke: #038048; stroke-width: 1.0;"/><text fill="#000000" font-family="sans-serif" font-size="11" lengthAdjust="spacingAndGlyphs" textLength="54" x="1100" y="666.5986">ping(): void</text></a><!--class network.server.SocketServer--><a href="SocketServer.html" target="_top" xlink:actuate="onRequest" xlink:show="new" xlink:title="SocketServer.html" xlink:type="simple"><rect fill="#FEFECE" filter="url(#f7ac34214rh1o)" height="131.0156" id="network.server.SocketServer" style="stroke: #A80036; stroke-width: 1.5;" width="180" x="917" y="330"/><ellipse cx="966.75" cy="346" fill="#ADD1B2" rx="11" ry="11" style="stroke: #A80036; stroke-width: 1.0;"/><path d="M969.5156,341.875 Q969.6719,341.6563 969.8594,341.5469 Q970.0469,341.4375 970.2656,341.4375 Q970.6406,341.4375 970.875,341.7031 Q971.1094,341.9531 971.1094,342.5625 L971.1094,344.0156 Q971.1094,344.625 970.875,344.8906 Q970.6406,345.1563 970.2656,345.1563 Q969.9219,345.1563 969.7188,344.9531 Q969.5156,344.7656 969.4063,344.25 Q969.3594,343.8906 969.1719,343.7031 Q968.8438,343.3281 968.2344,343.1094 Q967.625,342.8906 967,342.8906 Q966.2344,342.8906 965.5938,343.2188 Q964.9688,343.5469 964.4688,344.2969 Q963.9844,345.0469 963.9844,346.0781 L963.9844,347.1719 Q963.9844,348.4063 964.875,349.2344 Q965.7656,350.0469 967.3594,350.0469 Q968.2969,350.0469 968.9531,349.7969 Q969.3438,349.6406 969.7656,349.2031 Q970.0313,348.9375 970.1719,348.8594 Q970.3281,348.7813 970.5313,348.7813 Q970.8594,348.7813 971.1094,349.0469 Q971.375,349.2969 971.375,349.6406 Q971.375,349.9844 971.0313,350.3906 Q970.5313,350.9688 969.7344,351.2969 Q968.6563,351.75 967.3594,351.75 Q965.8438,351.75 964.6406,351.125 Q963.6563,350.625 962.9688,349.5625 Q962.2813,348.4844 962.2813,347.2031 L962.2813,346.0469 Q962.2813,344.7188 962.8906,343.5781 Q963.5156,342.4219 964.6094,341.8125 Q965.7031,341.1875 966.9375,341.1875 Q967.6719,341.1875 968.3125,341.3594 Q968.9688,341.5156 969.5156,341.875 Z "/><text fill="#000000" font-family="sans-serif" font-size="12" lengthAdjust="spacingAndGlyphs" textLength="72" x="987.25" y="350.9102">SocketServer</text><line style="stroke: #A80036; stroke-width: 1.5;" x1="918" x2="1096" y1="362" y2="362"/><line style="stroke: #A80036; stroke-width: 1.5;" x1="918" x2="1096" y1="370" y2="370"/><ellipse cx="928" cy="382.418" fill="#84BE84" rx="3" ry="3" style="stroke: #038048; stroke-width: 1.0;"/><text fill="#000000" font-family="sans-serif" font-size="11" lengthAdjust="spacingAndGlyphs" textLength="124" x="937" y="385.4189">SocketServer(Server, int)</text><polygon fill="#4177AF" points="928,392.2539,924,398.2539,932,398.2539" style="stroke: #1963A0; stroke-width: 1.0;"/><text fill="#000000" font-family="sans-serif" font-size="11" lengthAdjust="spacingAndGlyphs" textLength="89" x="937" y="399.2549">startServer(): void</text><ellipse cx="928" cy="410.0898" fill="#84BE84" rx="3" ry="3" style="stroke: #038048; stroke-width: 1.0;"/><text fill="#000000" font-family="sans-serif" font-size="11" lengthAdjust="spacingAndGlyphs" textLength="50" x="937" y="413.0908">run(): void</text><polygon fill="#4177AF" points="928,419.9258,924,425.9258,932,425.9258" style="stroke: #1963A0; stroke-width: 1.0;"/><text fill="#000000" font-family="sans-serif" font-size="11" lengthAdjust="spacingAndGlyphs" textLength="144" x="937" y="426.9268">login(String, Connection): void</text><polygon fill="#4177AF" points="928,433.7617,924,439.7617,932,439.7617" style="stroke: #1963A0; stroke-width: 1.0;"/><text fill="#000000" font-family="sans-serif" font-size="11" lengthAdjust="spacingAndGlyphs" textLength="134" x="937" y="440.7627">onMessage(Message): void</text><polygon fill="#4177AF" points="928,447.5977,924,453.5977,932,453.5977" style="stroke: #1963A0; stroke-width: 1.0;"/><text fill="#000000" font-family="sans-serif" font-size="11" lengthAdjust="spacingAndGlyphs" textLength="154" x="937" y="454.5986">onDisconnect(Connection): void</text></a><!--class java.rmi.Remote--><rect fill="#FEFECE" filter="url(#f7ac34214rh1o)" height="48" id="java.rmi.Remote" style="stroke: #A80036; stroke-width: 1.5;" width="76" x="322" y="122.5"/><ellipse cx="337" cy="138.5" fill="#B4A7E5" rx="11" ry="11" style="stroke: #A80036; stroke-width: 1.0;"/><path d="M337.9531,135.1406 L337.9531,141.7969 L339.6719,141.7969 Q340.2813,141.7969 340.5469,142.0313 Q340.8125,142.2656 340.8125,142.6563 Q340.8125,143.0313 340.5469,143.2656 Q340.2813,143.5 339.6719,143.5 L334.5313,143.5 Q333.9219,143.5 333.6563,143.2656 Q333.3906,143.0313 333.3906,142.6406 Q333.3906,142.2656 333.6563,142.0313 Q333.9219,141.7969 334.5313,141.7969 L336.25,141.7969 L336.25,135.1406 L334.5313,135.1406 Q333.9219,135.1406 333.6563,134.9063 Q333.3906,134.6719 333.3906,134.2813 Q333.3906,133.9063 333.6563,133.6719 Q333.9219,133.4375 334.5313,133.4375 L339.6719,133.4375 Q340.2813,133.4375 340.5469,133.6719 Q340.8125,133.9063 340.8125,134.2813 Q340.8125,134.6719 340.5469,134.9063 Q340.2813,135.1406 339.6719,135.1406 L337.9531,135.1406 Z "/><text fill="#000000" font-family="sans-serif" font-size="12" font-style="italic" lengthAdjust="spacingAndGlyphs" textLength="44" x="351" y="143.4102">Remote</text><line style="stroke: #A80036; stroke-width: 1.5;" x1="323" x2="397" y1="154.5" y2="154.5"/><line style="stroke: #A80036; stroke-width: 1.5;" x1="323" x2="397" y1="162.5" y2="162.5"/><!--class java.rmi.server.UnicastRemoteObject--><rect fill="#FEFECE" filter="url(#f7ac34214rh1o)" height="48" id="java.rmi.server.UnicastRemoteObject" style="stroke: #A80036; stroke-width: 1.5;" width="153" x="38.5" y="371.5"/><ellipse cx="53.5" cy="387.5" fill="#ADD1B2" rx="11" ry="11" style="stroke: #A80036; stroke-width: 1.0;"/><path d="M56.2656,383.375 Q56.4219,383.1563 56.6094,383.0469 Q56.7969,382.9375 57.0156,382.9375 Q57.3906,382.9375 57.625,383.2031 Q57.8594,383.4531 57.8594,384.0625 L57.8594,385.5156 Q57.8594,386.125 57.625,386.3906 Q57.3906,386.6563 57.0156,386.6563 Q56.6719,386.6563 56.4688,386.4531 Q56.2656,386.2656 56.1563,385.75 Q56.1094,385.3906 55.9219,385.2031 Q55.5938,384.8281 54.9844,384.6094 Q54.375,384.3906 53.75,384.3906 Q52.9844,384.3906 52.3438,384.7188 Q51.7188,385.0469 51.2188,385.7969 Q50.7344,386.5469 50.7344,387.5781 L50.7344,388.6719 Q50.7344,389.9063 51.625,390.7344 Q52.5156,391.5469 54.1094,391.5469 Q55.0469,391.5469 55.7031,391.2969 Q56.0938,391.1406 56.5156,390.7031 Q56.7813,390.4375 56.9219,390.3594 Q57.0781,390.2813 57.2813,390.2813 Q57.6094,390.2813 57.8594,390.5469 Q58.125,390.7969 58.125,391.1406 Q58.125,391.4844 57.7813,391.8906 Q57.2813,392.4688 56.4844,392.7969 Q55.4063,393.25 54.1094,393.25 Q52.5938,393.25 51.3906,392.625 Q50.4063,392.125 49.7188,391.0625 Q49.0313,389.9844 49.0313,388.7031 L49.0313,387.5469 Q49.0313,386.2188 49.6406,385.0781 Q50.2656,383.9219 51.3594,383.3125 Q52.4531,382.6875 53.6875,382.6875 Q54.4219,382.6875 55.0625,382.8594 Q55.7188,383.0156 56.2656,383.375 Z "/><text fill="#000000" font-family="sans-serif" font-size="12" lengthAdjust="spacingAndGlyphs" textLength="121" x="67.5" y="392.4102">UnicastRemoteObject</text><line style="stroke: #A80036; stroke-width: 1.5;" x1="39.5" x2="190.5" y1="403.5" y2="403.5"/><line style="stroke: #A80036; stroke-width: 1.5;" x1="39.5" x2="190.5" y1="411.5" y2="411.5"/><!--class java.lang.Runnable--><rect fill="#FEFECE" filter="url(#f7ac34214rh1o)" height="61.8359" id="java.lang.Runnable" style="stroke: #A80036; stroke-width: 1.5;" width="87" x="1155.5" y="115.5"/><ellipse cx="1170.5" cy="131.5" fill="#B4A7E5" rx="11" ry="11" style="stroke: #A80036; stroke-width: 1.0;"/><path d="M1171.4531,128.1406 L1171.4531,134.7969 L1173.1719,134.7969 Q1173.7813,134.7969 1174.0469,135.0313 Q1174.3125,135.2656 1174.3125,135.6563 Q1174.3125,136.0313 1174.0469,136.2656 Q1173.7813,136.5 1173.1719,136.5 L1168.0313,136.5 Q1167.4219,136.5 1167.1563,136.2656 Q1166.8906,136.0313 1166.8906,135.6406 Q1166.8906,135.2656 1167.1563,135.0313 Q1167.4219,134.7969 1168.0313,134.7969 L1169.75,134.7969 L1169.75,128.1406 L1168.0313,128.1406 Q1167.4219,128.1406 1167.1563,127.9063 Q1166.8906,127.6719 1166.8906,127.2813 Q1166.8906,126.9063 1167.1563,126.6719 Q1167.4219,126.4375 1168.0313,126.4375 L1173.1719,126.4375 Q1173.7813,126.4375 1174.0469,126.6719 Q1174.3125,126.9063 1174.3125,127.2813 Q1174.3125,127.6719 1174.0469,127.9063 Q1173.7813,128.1406 1173.1719,128.1406 L1171.4531,128.1406 Z "/><text fill="#000000" font-family="sans-serif" font-size="12" font-style="italic" lengthAdjust="spacingAndGlyphs" textLength="55" x="1184.5" y="136.4102">Runnable</text><line style="stroke: #A80036; stroke-width: 1.5;" x1="1156.5" x2="1241.5" y1="147.5" y2="147.5"/><line style="stroke: #A80036; stroke-width: 1.5;" x1="1156.5" x2="1241.5" y1="155.5" y2="155.5"/><ellipse cx="1166.5" cy="167.918" fill="#84BE84" rx="3" ry="3" style="stroke: #038048; stroke-width: 1.0;"/><text fill="#000000" font-family="sans-serif" font-size="11" font-style="italic" lengthAdjust="spacingAndGlyphs" textLength="50" x="1175.5" y="170.9189">run(): void</text><!--class java.lang.Thread--><rect fill="#FEFECE" filter="url(#f7ac34214rh1o)" height="172.5234" id="java.lang.Thread" style="stroke: #A80036; stroke-width: 1.5;" width="227" x="893.5" y="60"/><ellipse cx="983.25" cy="76" fill="#ADD1B2" rx="11" ry="11" style="stroke: #A80036; stroke-width: 1.0;"/><path d="M986.0156,71.875 Q986.1719,71.6563 986.3594,71.5469 Q986.5469,71.4375 986.7656,71.4375 Q987.1406,71.4375 987.375,71.7031 Q987.6094,71.9531 987.6094,72.5625 L987.6094,74.0156 Q987.6094,74.625 987.375,74.8906 Q987.1406,75.1563 986.7656,75.1563 Q986.4219,75.1563 986.2188,74.9531 Q986.0156,74.7656 985.9063,74.25 Q985.8594,73.8906 985.6719,73.7031 Q985.3438,73.3281 984.7344,73.1094 Q984.125,72.8906 983.5,72.8906 Q982.7344,72.8906 982.0938,73.2188 Q981.4688,73.5469 980.9688,74.2969 Q980.4844,75.0469 980.4844,76.0781 L980.4844,77.1719 Q980.4844,78.4063 981.375,79.2344 Q982.2656,80.0469 983.8594,80.0469 Q984.7969,80.0469 985.4531,79.7969 Q985.8438,79.6406 986.2656,79.2031 Q986.5313,78.9375 986.6719,78.8594 Q986.8281,78.7813 987.0313,78.7813 Q987.3594,78.7813 987.6094,79.0469 Q987.875,79.2969 987.875,79.6406 Q987.875,79.9844 987.5313,80.3906 Q987.0313,80.9688 986.2344,81.2969 Q985.1563,81.75 983.8594,81.75 Q982.3438,81.75 981.1406,81.125 Q980.1563,80.625 979.4688,79.5625 Q978.7813,78.4844 978.7813,77.2031 L978.7813,76.0469 Q978.7813,74.7188 979.3906,73.5781 Q980.0156,72.4219 981.1094,71.8125 Q982.2031,71.1875 983.4375,71.1875 Q984.1719,71.1875 984.8125,71.3594 Q985.4688,71.5156 986.0156,71.875 Z "/><text fill="#000000" font-family="sans-serif" font-size="12" lengthAdjust="spacingAndGlyphs" textLength="39" x="1003.75" y="80.9102">Thread</text><line style="stroke: #A80036; stroke-width: 1.5;" x1="894.5" x2="1119.5" y1="92" y2="92"/><polygon fill="none" points="904.5,100.418,900.5,106.418,908.5,106.418" style="stroke: #1963A0; stroke-width: 1.0;"/><text fill="#000000" font-family="sans-serif" font-size="11" lengthAdjust="spacingAndGlyphs" textLength="149" x="913.5" y="107.4189">threadLocals: ThreadLocalMap</text><polygon fill="none" points="904.5,114.2539,900.5,120.2539,908.5,120.2539" style="stroke: #1963A0; stroke-width: 1.0;"/><text fill="#000000" font-family="sans-serif" font-size="11" lengthAdjust="spacingAndGlyphs" textLength="201" x="913.5" y="121.2549">inheritableThreadLocals: ThreadLocalMap</text><polygon fill="none" points="904.5,128.0898,900.5,134.0898,908.5,134.0898" style="stroke: #1963A0; stroke-width: 1.0;"/><text fill="#000000" font-family="sans-serif" font-size="11" lengthAdjust="spacingAndGlyphs" textLength="94" x="913.5" y="135.0908">parkBlocker: Object</text><ellipse cx="904.5" cy="145.9258" fill="none" rx="3" ry="3" style="stroke: #038048; stroke-width: 1.0;"/><text fill="#000000" font-family="sans-serif" font-size="11" lengthAdjust="spacingAndGlyphs" text-decoration="underline" textLength="86" x="913.5" y="148.9268">MIN_PRIORITY: int</text><ellipse cx="904.5" cy="159.7617" fill="none" rx="3" ry="3" style="stroke: #038048; stroke-width: 1.0;"/><text fill="#000000" font-family="sans-serif" font-size="11" lengthAdjust="spacingAndGlyphs" text-decoration="underline" textLength="99" x="913.5" y="162.7627">NORM_PRIORITY: int</text><ellipse cx="904.5" cy="173.5977" fill="none" rx="3" ry="3" style="stroke: #038048; stroke-width: 1.0;"/><text fill="#000000" font-family="sans-serif" font-size="11" lengthAdjust="spacingAndGlyphs" text-decoration="underline" textLength="92" x="913.5" y="176.5986">MAX_PRIORITY: int</text><polygon fill="none" points="904.5,183.4336,900.5,189.4336,908.5,189.4336" style="stroke: #1963A0; stroke-width: 1.0;"/><text fill="#000000" font-family="sans-serif" font-size="11" lengthAdjust="spacingAndGlyphs" textLength="147" x="913.5" y="190.4346">threadLocalRandomSeed: long</text><polygon fill="none" points="904.5,197.2695,900.5,203.2695,908.5,203.2695" style="stroke: #1963A0; stroke-width: 1.0;"/><text fill="#000000" font-family="sans-serif" font-size="11" lengthAdjust="spacingAndGlyphs" textLength="141" x="913.5" y="204.2705">threadLocalRandomProbe: int</text><polygon fill="none" points="904.5,211.1055,900.5,217.1055,908.5,217.1055" style="stroke: #1963A0; stroke-width: 1.0;"/><text fill="#000000" font-family="sans-serif" font-size="11" lengthAdjust="spacingAndGlyphs" textLength="191" x="913.5" y="218.1064">threadLocalRandomSecondarySeed: int</text><line style="stroke: #A80036; stroke-width: 1.5;" x1="894.5" x2="1119.5" y1="224.5234" y2="224.5234"/><!--link network.server.Connection to network.server.RMIConnection--><path d="M1126.01,473.774 C1122.32,476.581 1118.64,479.332 1115,482 C1083.72,504.943 1048.4,528.565 1016.72,548.985 " fill="none" id="network.server.Connection-network.server.RMIConnection" style="stroke: #A80036; stroke-width: 1.0;"/><polygon fill="none" points="1122.13,467.922,1142.23,461.194,1130.72,478.984,1122.13,467.922" style="stroke: #A80036; stroke-width: 1.0;"/><!--link java.rmi.Remote to network.server.RMIHandler--><path d="M360,190.82 C360,235.664 360,305.351 360,350.459 " fill="none" id="java.rmi.Remote-network.server.RMIHandler" style="stroke: #A80036; stroke-width: 1.0; stroke-dasharray: 7.0,7.0;"/><polygon fill="none" points="353,190.737,360,170.737,367,190.737,353,190.737" style="stroke: #A80036; stroke-width: 1.0;"/><!--link java.rmi.server.UnicastRemoteObject to network.server.RMIHandlerImplementation--><path d="M157.194,432.964 C196.422,466.864 255.235,517.691 299.087,555.587 " fill="none" id="java.rmi.server.UnicastRemoteObject-network.server.RMIHandlerImplementation" style="stroke: #A80036; stroke-width: 1.0;"/><polygon fill="none" points="152.489,438.15,141.934,419.776,161.643,427.557,152.489,438.15" style="stroke: #A80036; stroke-width: 1.0;"/><!--link network.server.RMIHandler to network.server.RMIHandlerImplementation--><path d="M359.389,460.657 C359.098,491.233 358.754,527.283 358.482,555.891 " fill="none" id="network.server.RMIHandler-network.server.RMIHandlerImplementation" style="stroke: #A80036; stroke-width: 1.0; stroke-dasharray: 7.0,7.0;"/><polygon fill="none" points="352.39,460.455,359.581,440.523,366.39,460.589,352.39,460.455" style="stroke: #A80036; stroke-width: 1.0;"/><!--link java.lang.Runnable to network.server.Server--><path d="M1184.39,196.493 C1174.97,219.018 1160.22,243.65 1138,257 C1118.57,268.677 750.686,255.724 730,265 C707.765,274.97 687.768,291.237 670.762,308.928 " fill="none" id="java.lang.Runnable-network.server.Server" style="stroke: #A80036; stroke-width: 1.0; stroke-dasharray: 7.0,7.0;"/><polygon fill="none" points="1177.87,193.93,1191.35,177.577,1191.01,198.764,1177.87,193.93" style="stroke: #A80036; stroke-width: 1.0;"/><!--link network.server.Connection to network.server.SocketConnection--><path d="M1208.49,481.381 C1205.99,501.602 1203.36,522.857 1200.99,541.993 " fill="none" id="network.server.Connection-network.server.SocketConnection" style="stroke: #A80036; stroke-width: 1.0;"/><polygon fill="none" points="1201.58,480.209,1210.99,461.22,1215.48,481.929,1201.58,480.209" style="stroke: #A80036; stroke-width: 1.0;"/><!--link java.lang.Runnable to network.server.SocketConnection--><path d="M1258.72,186.64 C1283.87,206.731 1310.42,233.605 1324,265 C1362.28,353.522 1362.04,393.374 1324,482 C1314.41,504.345 1298.62,524.571 1281.26,541.913 " fill="none" id="java.lang.Runnable-network.server.SocketConnection" style="stroke: #A80036; stroke-width: 1.0; stroke-dasharray: 7.0,7.0;"/><polygon fill="none" points="1254.29,192.071,1242.54,174.438,1262.72,180.894,1254.29,192.071" style="stroke: #A80036; stroke-width: 1.0;"/><!--link java.lang.Thread to network.server.SocketServer--><path d="M1007,253.316 C1007,279.395 1007,306.547 1007,329.992 " fill="none" id="java.lang.Thread-network.server.SocketServer" style="stroke: #A80036; stroke-width: 1.0;"/><polygon fill="none" points="1000,253.195,1007,233.195,1014,253.195,1000,253.195" style="stroke: #A80036; stroke-width: 1.0;"/><text fill="#888888" font-family="sans-serif" font-size="10" lengthAdjust="spacingAndGlyphs" textLength="184" x="593.5" y="725.3809">UMLDoclet 2.0.4, PlantUML 1.2019.06</text><!--
@startuml
    namespace network.server {

        abstract class Connection [[Connection.html]] {
            +isConnected(): boolean
            {abstract} +sendMessage(Message): void
            {abstract} +disconnect(): void
            {abstract} +ping(): void
            +getToken(): String
            +setToken(String): void
        }

        class RMIConnection [[RMIConnection.html]] {
            ~RMIConnection(Server, RMIClientConnection)
            +isConnected(): boolean
            +sendMessage(Message): void
            +disconnect(): void
            +ping(): void
        }

        interface RMIHandler [[RMIHandler.html]] {
            {abstract} +login(String, RMIClientConnection): void
            {abstract} +onMessage(Message): void
            {abstract} +disconnectMe(): void
        }

        class RMIHandlerImplementation [[RMIHandlerImplementation.html]] {
            ~RMIHandlerImplementation(Server)
            +login(String, RMIClientConnection): void
            +onMessage(Message): void
            +disconnectMe(): void
        }

        class RMIServer [[RMIServer.html]] {
            ~RMIServer(Server, int)
            ~startServer(): void
        }

        class Server [[Server.html]] {
            {static} +LOGGER: Logger
            +Server(boolean, int, String)
            {static} +main(String[]): void
            ~login(String, Connection): void
            ~onMessage(Message): void
            ~onDisconnect(Connection): void
            +sendMessageToAll(Message): void
            +sendMessage(String, Message): void
            +run(): void
        }

        class SocketConnection [[SocketConnection.html]] {
            ~SocketConnection(SocketServer, Socket)
            +run(): void
            +isConnected(): boolean
            +sendMessage(Message): void
            +disconnect(): void
            +ping(): void
        }

        class SocketServer [[SocketServer.html]] {
            +SocketServer(Server, int)
            ~startServer(): void
            +run(): void
            ~login(String, Connection): void
            ~onMessage(Message): void
            ~onDisconnect(Connection): void
        }

        Connection <|- - RMIConnection
        java.rmi.Remote <|.. RMIHandler
        java.rmi.server.UnicastRemoteObject <|- - RMIHandlerImplementation
        RMIHandler <|.. RMIHandlerImplementation
        java.lang.Runnable <|.. Server
        Connection <|- - SocketConnection
        java.lang.Runnable <|.. SocketConnection
        java.lang.Thread <|- - SocketServer
    }

    namespace java.rmi {
        interface Remote
    }

    namespace java.rmi.server {
        class UnicastRemoteObject {
        }
    }

    namespace java.lang {
        interface Runnable {
            {abstract} +run(): void
        }
        class Thread {
            ~threadLocals: ThreadLocalMap
            ~inheritableThreadLocals: ThreadLocalMap
            ~parkBlocker: Object
            {static} +MIN_PRIORITY: int
            {static} +NORM_PRIORITY: int
            {static} +MAX_PRIORITY: int
            ~threadLocalRandomSeed: long
            ~threadLocalRandomProbe: int
            ~threadLocalRandomSecondarySeed: int
        }
    }

    center footer UMLDoclet 2.0.4, PlantUML 1.2019.06
@enduml

PlantUML version 1.2019.06(Fri May 24 19:10:25 CEST 2019)
(APACHE source distribution)
Java Runtime: Java(TM) SE Runtime Environment
JVM: Java HotSpot(TM) 64-Bit Server VM
Java Version: 11.0.2+9-LTS
Operating System: Windows 10
OS Version: 10.0
Default Encoding: Cp1252
Language: it
Country: IT
--></g></svg>